<?xml version="1.0" encoding="UTF-8"?><svg xmlns="http://www.w3.org/2000/svg" xmlns:xlink="http://www.w3.org/1999/xlink" contentScriptType="text/ecmascript" width="1440" zoomAndPan="magnify" contentStyleType="text/css" viewBox="0 0 1440 809.999993" height="809.999993" preserveAspectRatio="xMidYMid meet" version="1.0"><rect x="-144" width="1728" fill="rgb(100%, 100%, 100%)" y="-80.999999" height="971.999992" fill-opacity="1"/><rect x="-144" width="1728" fill="rgb(100%, 100%, 100%)" y="-80.999999" height="971.999992" fill-opacity="1"/><rect x="-144" width="1728" fill="rgb(9.799194%, 16.079712%, 36.859131%)" y="-80.999999" height="971.999992" fill-opacity="1"/><path fill="rgb(98.039246%, 26.269531%, 36.859131%)" d="M 1561.5 0 L 1561.5 202.5 L 1359 202.5 L 1359 0 L 1561.5 0 " fill-opacity="1" fill-rule="nonzero"/><path fill="rgb(9.799194%, 16.079712%, 36.859131%)" d="M 1359 202.5 C 1380.484375 202.5 1540.332031 202.5 1561.5 202.5 L 1561.5 101.25 C 1540.015625 101.25 1380.167969 101.25 1359 101.25 L 1359 202.5 " fill-opacity="1" fill-rule="nonzero"/><path fill="rgb(9.799194%, 16.079712%, 36.859131%)" d="M 1156.5 202.5 L 1156.5 405 L 954 405 L 954 202.5 L 1156.5 202.5 " fill-opacity="1" fill-rule="nonzero"/><path fill="rgb(98.039246%, 26.269531%, 36.859131%)" d="M 1055.25 202.5 C 1111.167969 202.5 1156.5 247.832031 1156.5 303.75 C 1156.5 359.667969 1111.167969 405 1055.25 405 C 999.332031 405 954 359.667969 954 303.75 C 954 247.832031 999.332031 202.5 1055.25 202.5 " fill-opacity="1" fill-rule="nonzero"/><path fill="rgb(9.799194%, 16.079712%, 36.859131%)" d="M 1055.25 253.125 C 1083.210938 253.125 1105.875 275.789062 1105.875 303.75 C 1105.875 331.710938 1083.210938 354.375 1055.25 354.375 C 1027.289062 354.375 1004.625 331.710938 1004.625 303.75 C 1004.625 275.789062 1027.289062 253.125 1055.25 253.125 " fill-opacity="1" fill-rule="nonzero"/><path fill="rgb(100%, 82.348633%, 12.159729%)" d="M 1359 405 L 1359 607.5 L 1156.5 607.5 L 1156.5 405 L 1359 405 " fill-opacity="1" fill-rule="nonzero"/><path fill="rgb(98.039246%, 26.269531%, 36.859131%)" d="M 1257.75 556.875 C 1229.789062 556.875 1207.125 534.210938 1207.125 506.25 C 1207.125 478.289062 1229.789062 455.625 1257.75 455.625 C 1285.710938 455.625 1308.375 478.289062 1308.375 506.25 C 1308.375 534.210938 1285.710938 556.875 1257.75 556.875 " fill-opacity="1" fill-rule="nonzero"/><path fill="rgb(98.039246%, 26.269531%, 36.859131%)" d="M 1359 202.5 L 1359 405 L 1156.5 405 L 1156.5 202.5 L 1359 202.5 " fill-opacity="1" fill-rule="nonzero"/><path fill="rgb(9.799194%, 16.079712%, 36.859131%)" d="M 1156.5 405 C 1268.332031 405 1359 314.339844 1359 202.5 L 1156.5 202.5 L 1156.5 405 " fill-opacity="1" fill-rule="nonzero"/><path fill="rgb(9.799194%, 16.079712%, 36.859131%)" d="M 954 202.5 L 954 0 L 1156.5 0 L 1156.5 202.5 L 954 202.5 " fill-opacity="1" fill-rule="nonzero"/><path fill="rgb(100%, 82.348633%, 12.159729%)" d="M 1156.5 0 C 1044.660156 0 954 90.667969 954 202.5 L 1156.5 202.5 L 1156.5 0 " fill-opacity="1" fill-rule="nonzero"/><path fill="rgb(9.799194%, 16.079712%, 36.859131%)" d="M 954 607.5 L 954 405 L 1156.5 405 L 1156.5 607.5 L 954 607.5 " fill-opacity="1" fill-rule="nonzero"/><path fill="rgb(86.669922%, 91.758728%, 96.078491%)" d="M 1156.5 405 C 1044.660156 405 954 495.667969 954 607.5 L 1156.5 607.5 L 1156.5 405 " fill-opacity="1" fill-rule="nonzero"/><path fill="rgb(9.799194%, 16.079712%, 36.859131%)" d="M 1156.5 810 L 954 810 L 954 607.5 L 1156.5 607.5 L 1156.5 810 " fill-opacity="1" fill-rule="nonzero"/><path fill="rgb(98.039246%, 26.269531%, 36.859131%)" d="M 954 607.5 C 954 719.332031 1044.660156 810 1156.5 810 L 1156.5 607.5 L 954 607.5 " fill-opacity="1" fill-rule="nonzero"/><path fill="rgb(86.669922%, 91.758728%, 96.078491%)" d="M 1156.5 0 L 1359 0 L 1359 202.5 L 1156.5 202.5 L 1156.5 0 " fill-opacity="1" fill-rule="nonzero"/><path fill="rgb(9.799194%, 16.079712%, 36.859131%)" d="M 1359 202.5 C 1359 90.667969 1268.332031 0 1156.5 0 L 1156.5 202.5 L 1359 202.5 " fill-opacity="1" fill-rule="nonzero"/><path fill="rgb(86.669922%, 91.758728%, 96.078491%)" d="M 1561.5 607.5 L 1561.5 810 L 1359 810 L 1359 607.5 L 1561.5 607.5 " fill-opacity="1" fill-rule="nonzero"/><path fill="rgb(9.799194%, 16.079712%, 36.859131%)" d="M 1359 810 C 1470.832031 810 1561.5 719.332031 1561.5 607.5 L 1359 607.5 L 1359 810 " fill-opacity="1" fill-rule="nonzero"/><path fill="rgb(9.799194%, 16.079712%, 36.859131%)" d="M 1561.5 405 L 1561.5 607.5 L 1359 607.5 L 1359 405 L 1561.5 405 " fill-opacity="1" fill-rule="nonzero"/><path fill="rgb(98.039246%, 26.269531%, 36.859131%)" d="M 1460.25 405 C 1516.167969 405 1561.5 450.332031 1561.5 506.25 C 1561.5 562.167969 1516.167969 607.5 1460.25 607.5 C 1404.332031 607.5 1359 562.167969 1359 506.25 C 1359 450.332031 1404.332031 405 1460.25 405 " fill-opacity="1" fill-rule="nonzero"/><path fill="rgb(9.799194%, 16.079712%, 36.859131%)" d="M 1561.5 405 L 1359 405 L 1359 202.5 L 1561.5 202.5 L 1561.5 405 " fill-opacity="1" fill-rule="nonzero"/><path fill="rgb(98.039246%, 26.269531%, 36.859131%)" d="M 1561.5 405 L 1359 405 L 1359 202.5 Z M 1561.5 405 " fill-opacity="1" fill-rule="nonzero"/><path fill="rgb(9.799194%, 16.079712%, 36.859131%)" d="M 1359 607.5 L 1359 810 L 1156.5 810 L 1156.5 607.5 L 1359 607.5 " fill-opacity="1" fill-rule="nonzero"/><path fill="rgb(100%, 82.348633%, 12.159729%)" d="M 1156.5 810 L 1359 810 L 1257.75 708.75 Z M 1156.5 810 " fill-opacity="1" fill-rule="nonzero"/><path fill="rgb(100%, 82.348633%, 12.159729%)" d="M 1257.75 708.75 L 1359 607.5 L 1156.5 607.5 Z M 1257.75 708.75 " fill-opacity="1" fill-rule="nonzero"/></svg>