<svg xmlns="http://www.w3.org/2000/svg" width="255.75" viewBox="0 0 255.75 167.25" height="167.25" version="1.0"><defs><clipPath id="a"><path d="M 21 6 L 235 6 L 235 166.503906 L 21 166.503906 Z M 21 6"/></clipPath><clipPath id="b"><path d="M 19.214844 0 L 236.492188 0 L 236.492188 166.503906 L 19.214844 166.503906 Z M 19.214844 0"/></clipPath></defs><path fill="#C94741" d="M 216.230469 165.847656 L 39.589844 165.847656 C 29.558594 165.847656 21.429688 157.703125 21.429688 147.65625 L 21.429688 24.316406 C 21.429688 14.269531 29.558594 6.128906 39.589844 6.128906 L 216.230469 6.128906 C 226.257812 6.128906 234.386719 14.269531 234.386719 24.316406 L 234.386719 147.65625 C 234.386719 157.703125 226.257812 165.847656 216.230469 165.847656"/><g clip-path="url(#a)"><path fill="#DD6851" d="M 128.785156 20.289062 L 120.34375 6.660156 L 119.976562 6.886719 L 128.25 20.253906 C 128.429688 20.261719 128.605469 20.277344 128.785156 20.289062 Z M 99.273438 9.054688 C 99.636719 9.097656 100.078125 9.539062 100.3125 9.929688 L 113.371094 31.828125 C 113.398438 31.652344 113.441406 31.4375 113.496094 31.1875 L 100.6875 9.707031 C 100.390625 9.210938 99.855469 8.683594 99.328125 8.621094 C 99.066406 8.589844 98.832031 8.671875 98.648438 8.863281 L 98.957031 9.167969 C 99.046875 9.074219 99.148438 9.039062 99.273438 9.054688 Z M 214.152344 41.554688 C 214.144531 41.574219 214.148438 41.570312 214.152344 41.554688 Z M 111.859375 103.09375 C 110.730469 101.910156 107.050781 97.554688 107.050781 91.199219 L 106.617188 91.199219 C 106.617188 97.714844 110.390625 102.183594 111.546875 103.394531 C 118.40625 110.59375 123.636719 111.628906 123.855469 111.671875 L 124.03125 111.703125 L 124.097656 111.539062 C 125.683594 107.722656 127.597656 103.519531 128.003906 103.257812 C 128.617188 103.078125 129.699219 103.925781 130.0625 104.269531 L 130.203125 104.402344 L 130.351562 104.277344 C 131 103.734375 131.882812 103.199219 132.113281 103.300781 C 132.503906 103.578125 134.449219 107.757812 136.078125 111.542969 L 136.148438 111.710938 L 136.324219 111.667969 C 142.238281 110.3125 146.246094 106.160156 148.75 103.15625 C 153.800781 97.085938 153.859375 90.363281 153.859375 90.292969 L 153.425781 90.292969 C 153.425781 90.359375 153.367188 96.929688 148.417969 102.875 C 144.554688 107.511719 140.734375 110.164062 136.40625 111.203125 C 135.3125 108.667969 132.894531 103.183594 132.304688 102.910156 C 131.769531 102.664062 130.703125 103.433594 130.21875 103.824219 C 129.8125 103.472656 128.699219 102.59375 127.878906 102.839844 C 127.238281 103.03125 124.84375 108.617188 123.765625 111.203125 C 122.8125 110.960938 117.933594 109.46875 111.859375 103.09375 Z M 123.941406 23.316406 C 130.179688 21.703125 136.089844 23.296875 136.148438 23.3125 L 136.265625 22.894531 C 136.203125 22.878906 130.1875 21.25 123.832031 22.894531 C 117.582031 24.507812 113.875 29.757812 113.402344 30.726562 L 113.792969 30.917969 C 114.25 29.980469 117.851562 24.890625 123.941406 23.316406 Z M 124.148438 31.035156 C 126.652344 31.597656 129.640625 33.753906 132.804688 36.039062 C 137.097656 39.140625 141.84375 42.566406 146.308594 42.566406 C 147.453125 42.566406 148.574219 42.34375 149.667969 41.832031 L 149.484375 41.4375 C 144.355469 43.84375 138.355469 39.511719 133.058594 35.6875 C 129.859375 33.375 126.835938 31.191406 124.242188 30.609375 C 117.335938 29.0625 113.339844 32.089844 113.175781 32.222656 L 113.441406 32.566406 C 113.480469 32.535156 117.441406 29.535156 124.148438 31.035156 Z M 113.9375 35.222656 C 113.167969 37 113.394531 38.972656 113.613281 40.878906 C 113.65625 41.261719 113.703125 41.640625 113.738281 42.019531 C 113.949219 44.289062 113.765625 46.132812 113.175781 47.65625 C 112.4375 49.566406 111.003906 50.992188 109.332031 51.480469 L 109.453125 51.894531 C 111.25 51.375 112.792969 49.847656 113.582031 47.816406 C 114.195312 46.226562 114.390625 44.316406 114.167969 41.976562 C 114.132812 41.597656 114.089844 41.214844 114.046875 40.828125 C 113.832031 38.980469 113.613281 37.066406 114.335938 35.398438 Z M 117.601562 84.597656 C 117.152344 85.941406 116.542969 87.085938 115.710938 87.585938 C 113.175781 92.726562 115.0625 100.929688 130.238281 102.816406 C 130.238281 102.816406 153.253906 97.722656 145.414062 86.511719 C 145.132812 85.988281 144.832031 85.328125 144.554688 84.515625 C 144.140625 83.300781 143.78125 81.746094 143.621094 79.804688 C 143.636719 79.960938 143.648438 80.121094 143.664062 80.273438 C 140.507812 84.265625 135.660156 89.207031 131.015625 89.207031 C 125.140625 89.207031 120.546875 82.636719 118.636719 79.386719 C 118.640625 79.324219 118.648438 79.261719 118.65625 79.203125 C 118.507812 80.640625 118.203125 82.792969 117.601562 84.597656 Z M 157.882812 149.964844 C 157.882812 145.683594 154.417969 142.210938 150.140625 142.210938 C 145.863281 142.210938 142.398438 145.683594 142.398438 149.964844 C 142.398438 154.246094 145.863281 157.71875 150.140625 157.71875 C 154.417969 157.71875 157.882812 154.246094 157.882812 149.964844 Z M 133.570312 144.480469 C 130.546875 141.453125 125.644531 141.453125 122.621094 144.480469 C 119.597656 147.511719 119.597656 152.417969 122.621094 155.449219 C 125.644531 158.476562 130.546875 158.476562 133.570312 155.449219 C 136.59375 152.417969 136.59375 147.511719 133.570312 144.480469 Z M 113.792969 149.964844 C 113.792969 145.683594 110.328125 142.210938 106.050781 142.210938 C 101.773438 142.210938 98.308594 145.683594 98.308594 149.964844 C 98.308594 154.246094 101.773438 157.71875 106.050781 157.71875 C 110.328125 157.71875 113.792969 154.246094 113.792969 149.964844 Z M 174.308594 101.316406 L 185.140625 101.316406 L 184.386719 71.773438 L 172.863281 71.773438 Z M 172.691406 68.210938 L 184.292969 68.210938 L 183.433594 34.488281 L 171.082031 35.3125 Z M 187.894531 35.894531 C 187.894531 35.90625 187.890625 35.914062 187.890625 35.925781 C 187.890625 35.914062 187.894531 35.90625 187.894531 35.894531 Z M 187.917969 34.183594 L 187.949219 35.574219 C 188.074219 34.984375 188.316406 34.511719 188.609375 34.140625 Z M 194.179688 29.671875 C 194.105469 29.71875 194.035156 29.761719 193.957031 29.808594 C 194.035156 29.761719 194.105469 29.71875 194.179688 29.671875 Z M 193.808594 29.890625 C 193.738281 29.933594 193.664062 29.972656 193.59375 30.011719 C 193.664062 29.972656 193.738281 29.933594 193.808594 29.890625 Z M 193.425781 30.097656 C 193.355469 30.136719 193.285156 30.171875 193.21875 30.203125 C 193.285156 30.171875 193.355469 30.136719 193.425781 30.097656 Z M 193.035156 30.289062 C 192.964844 30.320312 192.898438 30.351562 192.832031 30.378906 C 192.898438 30.351562 192.964844 30.320312 193.035156 30.289062 Z M 194.425781 29.511719 C 194.386719 29.539062 194.351562 29.566406 194.308594 29.589844 C 194.351562 29.566406 194.390625 29.539062 194.425781 29.515625 C 194.425781 29.515625 194.425781 29.515625 194.425781 29.511719 Z M 194.984375 29.128906 C 195.066406 29.066406 195.144531 29.007812 195.226562 28.941406 C 195.144531 29.007812 195.066406 29.066406 194.984375 29.128906 Z M 195.296875 28.886719 C 195.382812 28.820312 195.464844 28.753906 195.550781 28.6875 C 195.464844 28.753906 195.382812 28.820312 195.296875 28.886719 Z M 195.605469 28.640625 C 195.691406 28.570312 195.773438 28.496094 195.859375 28.425781 C 195.773438 28.496094 195.691406 28.570312 195.605469 28.640625 Z M 195.894531 28.390625 C 195.984375 28.316406 196.074219 28.238281 196.15625 28.160156 C 196.074219 28.238281 195.984375 28.316406 195.894531 28.390625 Z M 194.792969 29.261719 C 194.792969 29.265625 194.792969 29.265625 194.792969 29.265625 C 194.828125 29.242188 194.855469 29.21875 194.890625 29.195312 C 194.855469 29.21875 194.824219 29.242188 194.792969 29.261719 Z M 203.144531 33.699219 L 203.144531 37.695312 C 203.21875 37.773438 203.296875 37.855469 203.371094 37.933594 L 203.371094 33.699219 Z M 207.371094 28.902344 C 207.632812 28.988281 207.890625 29.070312 208.148438 29.148438 C 207.890625 29.070312 207.632812 28.988281 207.371094 28.902344 Z M 203.867188 27.636719 C 205.011719 28.105469 206.171875 28.519531 207.296875 28.878906 C 206.171875 28.519531 205.011719 28.105469 203.867188 27.636719 Z M 209.804688 29.625 C 209.285156 29.484375 208.742188 29.328125 208.191406 29.160156 C 208.742188 29.328125 209.285156 29.484375 209.804688 29.625 Z M 204.726562 39.996094 C 204.582031 39.839844 204.4375 39.683594 204.289062 39.527344 C 203.964844 39.4375 203.585938 39.546875 203.371094 39.632812 L 203.371094 38.5625 C 203.296875 38.484375 203.21875 38.402344 203.144531 38.324219 L 203.144531 39.992188 L 203.308594 39.90625 C 203.316406 39.902344 204.121094 39.503906 204.457031 39.882812 C 204.5 39.929688 204.515625 39.984375 204.507812 40.054688 C 204.476562 40.410156 203.890625 40.945312 203.664062 41.121094 L 203.804688 41.304688 C 203.894531 41.230469 204.691406 40.589844 204.734375 40.074219 C 204.738281 40.046875 204.730469 40.023438 204.726562 39.996094 Z M 206.914062 44.988281 C 206.914062 44.988281 205.609375 43.984375 203.421875 43.984375 C 201.238281 43.984375 199.910156 44.988281 199.933594 44.988281 C 199.933594 44.988281 200.820312 47.316406 203.421875 47.316406 C 206.023438 47.316406 206.914062 44.988281 206.914062 44.988281 Z M 192.628906 30.460938 C 192.5625 30.488281 192.5 30.515625 192.433594 30.539062 C 192.5 30.515625 192.5625 30.488281 192.628906 30.460938 Z M 192.210938 30.617188 C 192.152344 30.636719 192.09375 30.660156 192.03125 30.679688 C 192.09375 30.660156 192.152344 30.636719 192.210938 30.617188 Z M 191.785156 30.75 C 191.730469 30.765625 191.671875 30.78125 191.613281 30.796875 C 191.671875 30.78125 191.730469 30.765625 191.785156 30.75 Z M 191.335938 30.859375 C 191.289062 30.871094 191.238281 30.882812 191.191406 30.894531 C 191.238281 30.882812 191.289062 30.871094 191.335938 30.859375 Z M 191.628906 38.894531 C 191.390625 37.746094 191.222656 36.566406 191.105469 35.386719 C 190.589844 35.453125 189.734375 35.726562 189.578125 36.796875 C 189.394531 38.054688 190.570312 39.210938 191.628906 38.894531 Z M 189.230469 33.527344 C 189.214844 33.539062 189.203125 33.550781 189.1875 33.5625 C 189.203125 33.550781 189.214844 33.539062 189.230469 33.527344 Z M 189.023438 33.699219 C 189.011719 33.710938 189.003906 33.71875 188.992188 33.726562 C 189.003906 33.71875 189.011719 33.710938 189.023438 33.699219 Z M 187.863281 36.234375 C 187.863281 36.253906 187.863281 36.273438 187.863281 36.296875 C 187.863281 36.273438 187.863281 36.253906 187.863281 36.234375 Z M 187.859375 36.679688 C 187.859375 36.652344 187.859375 36.625 187.859375 36.597656 C 187.859375 36.625 187.859375 36.652344 187.859375 36.679688 Z M 137.433594 71.945312 L 137.167969 71.601562 C 130.679688 76.644531 126.375 71.863281 126.195312 71.660156 L 125.867188 71.945312 C 125.996094 72.089844 128.023438 74.347656 131.347656 74.347656 C 133.058594 74.347656 135.117188 73.746094 137.433594 71.945312 Z M 131.453125 51.34375 L 131.566406 64.457031 L 131.832031 64.398438 C 132.121094 64.332031 132.421875 64.285156 132.710938 64.257812 C 132.882812 64.242188 133.050781 64.238281 133.207031 64.242188 C 133.695312 64.265625 134.078125 64.394531 134.175781 64.710938 C 134.246094 64.945312 134.210938 65.179688 134.074219 65.4375 C 133.664062 66.183594 132.378906 66.875 131.609375 67.089844 L 131.722656 67.511719 C 132.347656 67.335938 133.28125 66.882812 133.925781 66.292969 C 134.039062 66.1875 134.144531 66.078125 134.234375 65.964844 C 134.320312 65.859375 134.394531 65.753906 134.453125 65.644531 C 134.648438 65.289062 134.695312 64.929688 134.589844 64.585938 C 134.390625 63.933594 133.675781 63.773438 132.945312 63.800781 C 132.78125 63.808594 132.621094 63.820312 132.464844 63.839844 C 132.300781 63.863281 132.144531 63.890625 131.996094 63.917969 L 131.988281 62.667969 L 131.980469 62.1875 L 131.886719 51.339844 Z M 89.1875 37.640625 L 75.25 36.734375 L 75.707031 65.917969 L 87.753906 67.023438 Z M 87.597656 70.246094 L 75.757812 69.105469 L 76.28125 102.238281 L 86.035156 102.238281 Z M 72.699219 102.238281 C 72.558594 96.988281 72.1875 82.820312 71.800781 68.726562 L 59.695312 67.5625 L 62.621094 102.238281 Z M 56.996094 35.542969 L 59.429688 64.425781 L 71.710938 65.550781 C 71.371094 53.210938 71.035156 41.46875 70.847656 36.445312 Z M 214.964844 37.972656 C 214.964844 37.972656 216.691406 38.472656 217.394531 37.167969 C 218.097656 35.863281 216.648438 34.191406 215.339844 34.863281 C 215.339844 34.863281 215.476562 36.472656 214.964844 37.972656 Z M 188.757812 71.773438 L 189.417969 101.316406 L 197.53125 101.316406 L 200.464844 71.773438 Z M 169.921875 166.121094 C 169.863281 165.714844 169.804688 165.308594 169.75 164.898438 C 144.789062 164.898438 114.527344 164.898438 89.304688 164.898438 M 88.867188 164.898438 C 62.421875 164.898438 41.609375 164.898438 38.429688 164.898438 C 29.351562 164.898438 22.59375 167.035156 22.59375 133.957031 L 44.96875 133.957031 C 36.800781 123.8125 28.949219 113.335938 21.539062 102.683594 L 21.898438 102.4375 C 29.367188 113.171875 37.285156 123.734375 45.527344 133.957031 L 65.417969 133.957031 C 61.390625 129.699219 57.925781 124.886719 54.554688 120.1875 C 51.824219 116.386719 49 112.460938 45.917969 108.878906 C 43.503906 106.074219 40.839844 103.371094 38.261719 100.761719 C 32.851562 95.277344 27.257812 89.605469 23.679688 82.660156 L 24.066406 82.460938 C 27.609375 89.347656 33.183594 94.992188 38.570312 100.453125 C 41.152344 103.070312 43.824219 105.777344 46.246094 108.59375 C 49.34375 112.191406 52.167969 116.125 54.90625 119.933594 C 58.351562 124.726562 61.882812 129.644531 66.015625 133.957031 L 88.167969 133.957031 C 87.007812 131.242188 86.328125 128.316406 86.21875 125.332031 L 86.652344 125.3125 C 86.765625 128.308594 87.449219 131.242188 88.636719 133.957031 L 172.046875 133.957031 C 172.199219 133.207031 172.289062 132.445312 172.265625 131.679688 L 172.699219 131.664062 C 172.722656 132.441406 172.636719 133.207031 172.488281 133.957031 L 202.0625 133.957031 C 199.210938 129.933594 196.289062 125.933594 193.261719 122.0625 C 191.769531 120.152344 190.222656 118.238281 188.726562 116.382812 C 186.003906 113.003906 183.210938 109.535156 180.605469 105.949219 L 171.082031 105.949219 L 169.808594 88.503906 C 169.449219 87.875 169.09375 87.242188 168.734375 86.613281 C 163.554688 77.519531 158.058594 68.464844 152.589844 59.585938 C 152.699219 60.273438 152.710938 61.046875 152.582031 61.917969 C 151.84375 66.964844 147.171875 66.472656 147.171875 66.472656 C 147.171875 66.472656 146.808594 70.90625 146.4375 72.628906 C 145.761719 75.753906 137.832031 85.796875 131.441406 85.796875 C 126.25 85.796875 120.980469 80.613281 118.785156 77.605469 C 118.785156 77.605469 118.785156 77.621094 118.785156 77.640625 C 118.785156 77.617188 118.785156 77.605469 118.785156 77.605469 C 118.785156 77.605469 118.78125 77.65625 118.777344 77.746094 C 109.851562 66.648438 101.507812 55.023438 93.878906 43.050781 C 93.679688 42.734375 93.476562 42.417969 93.277344 42.101562 L 91.527344 77.105469 C 93.421875 80.078125 95.269531 83.007812 97.039062 85.851562 L 98.316406 87.910156 C 102.585938 94.785156 107 101.894531 112.222656 108.222656 C 112.660156 108.753906 113.105469 109.28125 113.550781 109.808594 C 115.984375 112.695312 118.5 115.675781 119.886719 119.234375 L 119.484375 119.390625 C 118.121094 115.902344 115.628906 112.945312 113.21875 110.089844 C 112.773438 109.558594 112.328125 109.03125 111.886719 108.5 C 106.648438 102.148438 102.226562 95.027344 97.949219 88.140625 L 96.671875 86.082031 C 95.003906 83.40625 93.265625 80.648438 91.488281 77.855469 L 90.085938 105.949219 L 83.269531 105.949219 C 86.992188 112.21875 90.710938 118.488281 94.421875 124.765625 L 94.050781 124.988281 C 90.292969 118.636719 86.53125 112.292969 82.765625 105.949219 L 67.757812 105.949219 C 73.429688 112.613281 79.214844 119.300781 84.984375 125.859375 L 84.660156 126.148438 C 78.804688 119.496094 72.9375 112.707031 67.1875 105.949219 L 58.570312 105.949219 L 57.539062 94.515625 C 46.238281 80.992188 35.019531 67.136719 24.171875 53.285156 L 24.511719 53.015625 C 35.230469 66.699219 46.308594 80.390625 57.472656 93.753906 L 54.265625 58.191406 C 44.832031 42.460938 35.257812 26.570312 25.765625 10.890625 L 26.136719 10.664062 C 35.476562 26.089844 44.894531 41.71875 54.175781 57.195312 L 51.820312 31.042969 L 60.765625 31.652344 C 57.238281 26.503906 53.707031 21.363281 50.171875 16.226562 C 48.144531 13.273438 46.042969 10.222656 43.628906 7.496094 L 43.953125 7.207031 C 46.386719 9.949219 48.496094 13.015625 50.53125 15.976562 C 54.128906 21.210938 57.730469 26.449219 61.316406 31.691406 L 87.914062 33.507812 C 82.183594 24.289062 76.203125 14.867188 68.921875 6.679688 L 69.246094 6.386719 C 76.625 14.683594 82.65625 24.222656 88.445312 33.542969 L 93.6875 33.902344 L 93.316406 41.347656 C 93.625 41.839844 93.933594 42.328125 94.246094 42.816406 C 101.457031 54.136719 109.316406 65.140625 117.695312 75.6875 C 116.945312 73.421875 115.699219 66.964844 115.699219 66.964844 C 110.539062 68.320312 108.324219 62.777344 109.796875 58.589844 C 111.273438 54.402344 115.085938 55.390625 115.085938 55.390625 C 115.085938 55.390625 115.46875 55.515625 115.183594 51.957031 C 113.835938 53.460938 111.066406 53.582031 110.945312 53.585938 L 110.929688 53.152344 C 110.960938 53.152344 113.824219 53.03125 114.984375 51.527344 L 115.15625 51.660156 C 115.15625 51.644531 115.15625 51.628906 115.152344 51.613281 C 115.152344 51.613281 117.078125 50.355469 116.542969 46.238281 C 116.023438 42.265625 116.992188 40.242188 117.28125 39.832031 C 117.292969 39.816406 117.304688 39.804688 117.316406 39.789062 C 117.386719 39.863281 127.507812 50.121094 138.328125 44.859375 C 137.4375 44.292969 136.523438 43.867188 135.476562 43.386719 C 133.636719 42.539062 131.34375 41.484375 128.277344 39.128906 C 123.503906 35.46875 117.171875 35.519531 115.3125 36.769531 L 115.070312 36.40625 C 117.273438 34.929688 123.769531 35.121094 128.539062 38.78125 C 131.570312 41.109375 133.742188 42.105469 135.660156 42.992188 C 136.785156 43.507812 137.757812 43.957031 138.730469 44.59375 L 138.632812 44.738281 C 138.886719 44.855469 141.394531 45.949219 144.027344 45.742188 C 144.1875 45.730469 144.347656 45.710938 144.507812 45.691406 C 145.507812 45.546875 146.511719 45.199219 147.390625 44.515625 L 147.546875 50.597656 L 147.566406 51.460938 L 147.664062 55.289062 C 147.664062 55.289062 148.421875 55.554688 149.402344 55.503906 C 149.800781 55.652344 150.207031 55.871094 150.59375 56.160156 C 150.644531 56.023438 150.6875 55.886719 150.730469 55.746094 C 151.03125 56.234375 151.332031 56.722656 151.632812 57.207031 C 151.769531 57.398438 151.894531 57.605469 152.011719 57.820312 C 157.792969 67.195312 163.628906 76.773438 169.113281 86.394531 C 169.320312 86.761719 169.527344 87.128906 169.734375 87.496094 L 165.597656 30.820312 L 165.792969 30.804688 C 159.570312 22.871094 153.136719 14.996094 146.613281 7.351562 L 146.945312 7.066406 C 153.527344 14.792969 160.03125 22.742188 166.308594 30.753906 L 193.105469 28.210938 C 192.539062 27.652344 191.972656 27.09375 191.40625 26.539062 C 184.664062 19.902344 177.710938 13.066406 170.769531 6.449219 L 171.070312 6.136719 C 178.015625 12.753906 184.96875 19.59375 191.691406 26.207031 C 192.351562 26.855469 193.011719 27.507812 193.671875 28.15625 L 196.4375 27.894531 C 196.351562 27.976562 196.265625 28.0625 196.175781 28.144531 C 197.835938 26.617188 198.832031 25.054688 198.832031 25.054688 C 200.339844 26.054688 202.078125 26.910156 203.859375 27.636719 C 203.570312 27.519531 203.285156 27.394531 203 27.273438 L 210.113281 26.597656 L 209.804688 29.625 C 213.171875 30.550781 215.742188 30.964844 215.742188 30.964844 C 215.742188 30.964844 215.742188 31.238281 215.691406 32.792969 C 216.359375 32.988281 218.929688 33.792969 218.585938 37.078125 C 218.558594 37.351562 218.507812 37.609375 218.457031 37.859375 C 218.445312 37.910156 218.40625 38.074219 218.394531 38.121094 C 218.253906 38.65625 218.050781 39.128906 217.800781 39.542969 C 217.800781 39.542969 217.773438 39.585938 217.769531 39.589844 C 217.667969 39.753906 217.558594 39.90625 217.441406 40.050781 C 217.4375 40.054688 217.429688 40.066406 217.429688 40.066406 C 216.574219 41.109375 215.371094 41.613281 214.152344 41.554688 C 214.164062 41.503906 214.210938 41.34375 214.246094 41.199219 C 213.636719 40.714844 212.867188 40.421875 212.027344 40.421875 C 210.234375 40.421875 208.757812 41.75 208.511719 43.476562 C 211.335938 46.632812 214.054688 49.878906 216.597656 53.253906 C 220.644531 58.625 224.300781 64.398438 227.832031 69.980469 L 233.273438 78.570312 C 233.238281 78.066406 232.980469 77.570312 232.570312 77.28125 L 232.820312 76.925781 C 233.546875 77.433594 233.886719 78.421875 233.628906 79.273438 L 233.492188 79.726562 L 227.46875 70.214844 C 223.9375 64.636719 220.285156 58.871094 216.25 53.515625 C 213.804688 50.265625 211.191406 47.136719 208.480469 44.09375 C 208.523438 45.535156 209.417969 46.757812 210.675781 47.277344 C 210.625 47.328125 210.574219 47.378906 210.519531 47.429688 C 210.3125 47.582031 209.855469 47.988281 209.632812 48.210938 C 207.429688 50.027344 204.878906 51.324219 203.257812 51.324219 C 202.144531 51.324219 199.761719 50.160156 197.566406 48.582031 C 197.121094 48.257812 196.683594 47.917969 196.261719 47.566406 C 196.253906 47.570312 196.011719 47.359375 195.761719 47.136719 C 195.859375 47.21875 195.953125 47.304688 196.046875 47.386719 C 197.5 46.941406 198.558594 45.585938 198.558594 43.984375 C 198.558594 42.015625 196.964844 40.421875 195 40.421875 C 193.941406 40.421875 192.996094 40.886719 192.34375 41.621094 C 192.605469 42.453125 192.359375 41.707031 192.3125 41.554688 C 191.914062 41.570312 191.519531 41.527344 191.136719 41.429688 C 191.125 41.425781 190.921875 41.363281 190.902344 41.359375 C 190.328125 41.171875 189.792969 40.847656 189.332031 40.386719 C 189.3125 40.367188 188.992188 40 188.976562 39.980469 C 188.578125 39.46875 188.265625 38.835938 188.070312 38.082031 C 188.066406 38.058594 187.996094 37.769531 187.996094 37.753906 C 187.996094 37.753906 187.996094 37.761719 188 37.769531 L 188.679688 68.210938 L 200.820312 68.210938 L 201.894531 57.390625 L 199.054688 57.390625 C 198.902344 56.519531 198.761719 55.644531 198.617188 54.769531 C 198.355469 53.203125 198.09375 51.632812 197.832031 50.066406 C 198.898438 51.410156 200.957031 53.5 203.421875 53.5 C 205.882812 53.5 208.054688 51.417969 209.199219 50.074219 C 209.207031 50.054688 209.210938 50.039062 209.214844 50.019531 C 208.753906 52.054688 208.046875 55.246094 207.574219 57.390625 L 206.984375 57.390625 L 204.289062 83.910156 C 214.421875 99.460938 224.195312 115.515625 233.664062 131.082031 L 233.300781 131.324219 C 223.917969 115.894531 214.246094 100.003906 204.21875 84.59375 L 202.050781 105.949219 L 181.140625 105.949219 C 183.6875 109.4375 186.410156 112.816406 189.066406 116.109375 C 190.5625 117.964844 192.109375 119.882812 193.601562 121.792969 C 196.699219 125.753906 199.6875 129.839844 202.59375 133.957031 L 234.386719 133.957031 C 234.386719 133.957031 234.386719 147.113281 234.386719 153.109375 C 234.386719 159.105469 234.703125 164.898438 217.578125 164.898438 C 212.21875 164.898438 193.570312 164.898438 170.1875 164.898438 C 170.242188 165.285156 170.296875 165.675781 170.351562 166.0625 M 201.628906 6.539062 L 201.929688 6.222656 C 215.128906 18.8125 226.132812 33.382812 234.640625 49.53125 L 234.253906 49.734375 C 225.773438 33.628906 214.796875 19.09375 201.628906 6.539062"/></g><path fill="#FFF" d="M 133.109375 147.34375 C 133.070312 147.15625 132.976562 146.886719 132.777344 146.710938 C 132.574219 146.535156 131.777344 145.863281 130.726562 146.011719 C 129.671875 146.164062 128.367188 146.5 126.503906 148.367188 C 124.636719 150.234375 124.300781 151.542969 124.152344 152.597656 C 124 153.652344 124.671875 154.449219 124.847656 154.652344 C 125.023438 154.855469 125.292969 154.949219 125.480469 154.988281 C 125.667969 155.023438 126.164062 155.183594 126.285156 154.960938 C 126.402344 154.738281 127.207031 153.332031 127.386719 153.027344 C 127.570312 152.71875 126.898438 152.246094 126.699219 152.09375 C 126.496094 151.945312 126.152344 151.675781 126.257812 151.441406 C 126.363281 151.207031 126.828125 150.277344 127.621094 149.488281 C 128.410156 148.695312 129.339844 148.230469 129.570312 148.125 C 129.800781 148.019531 130.070312 148.363281 130.222656 148.5625 C 130.375 148.765625 130.84375 149.4375 131.152344 149.257812 C 131.457031 149.074219 132.863281 148.269531 133.082031 148.148438 C 133.304688 148.03125 133.148438 147.535156 133.109375 147.34375 Z M 152.316406 151.035156 L 154.503906 152.320312 L 154.488281 147.574219 L 152.308594 148.875 L 152.308594 148.273438 C 152.304688 147.757812 151.886719 147.339844 151.367188 147.339844 L 146.710938 147.355469 C 146.195312 147.355469 145.777344 147.777344 145.777344 148.296875 L 145.789062 151.652344 C 145.789062 152.171875 146.210938 152.589844 146.726562 152.589844 L 151.386719 152.574219 C 151.902344 152.570312 152.320312 152.148438 152.316406 151.632812 Z M 109.808594 153.074219 L 108.105469 151.367188 C 108.601562 150.890625 108.933594 150.242188 109.007812 149.523438 C 109.019531 149.359375 108.890625 149.21875 108.730469 149.21875 C 108.589844 149.21875 108.46875 149.328125 108.453125 149.46875 C 108.394531 150.058594 108.121094 150.585938 107.714844 150.972656 L 102.683594 145.933594 C 102.574219 145.828125 102.398438 145.828125 102.292969 145.933594 C 102.183594 146.042969 102.183594 146.21875 102.292969 146.328125 L 104.328125 148.367188 L 104.328125 149.351562 C 104.328125 150.304688 105.101562 151.078125 106.054688 151.078125 C 106.339844 151.078125 106.609375 151.007812 106.84375 150.886719 L 107.269531 151.308594 C 106.910156 151.519531 106.492188 151.640625 106.050781 151.640625 C 104.800781 151.640625 103.773438 150.6875 103.648438 149.46875 C 103.632812 149.328125 103.511719 149.21875 103.371094 149.21875 C 103.210938 149.21875 103.082031 149.359375 103.09375 149.523438 C 103.238281 150.929688 104.363281 152.050781 105.773438 152.179688 L 105.773438 153.5625 L 104.601562 153.5625 C 104.449219 153.5625 104.324219 153.6875 104.324219 153.839844 C 104.324219 153.992188 104.449219 154.117188 104.601562 154.117188 L 107.5 154.117188 C 107.652344 154.117188 107.777344 153.992188 107.777344 153.839844 C 107.777344 153.6875 107.652344 153.5625 107.5 153.5625 L 106.328125 153.5625 L 106.328125 152.179688 C 106.820312 152.136719 107.277344 151.96875 107.671875 151.714844 L 109.417969 153.464844 C 109.527344 153.574219 109.703125 153.574219 109.808594 153.464844 C 109.917969 153.359375 109.917969 153.179688 109.808594 153.074219 Z M 104.445312 146.917969 L 107.613281 150.089844 C 107.71875 149.867188 107.777344 149.617188 107.777344 149.351562 L 107.777344 147.539062 C 107.777344 146.585938 107.007812 145.8125 106.054688 145.8125 C 105.320312 145.8125 104.695312 146.269531 104.445312 146.917969 Z M 107.050781 91.199219 C 107.050781 97.554688 110.730469 101.910156 111.859375 103.09375 C 117.933594 109.46875 122.8125 110.960938 123.765625 111.203125 C 124.84375 108.617188 127.238281 103.03125 127.878906 102.839844 C 128.699219 102.59375 129.8125 103.472656 130.21875 103.824219 C 130.703125 103.433594 131.769531 102.664062 132.304688 102.910156 C 132.894531 103.183594 135.3125 108.667969 136.40625 111.203125 C 140.734375 110.164062 144.554688 107.511719 148.417969 102.875 C 153.367188 96.929688 153.425781 90.359375 153.425781 90.292969 L 153.644531 90.292969 C 153.644531 90.292969 146.152344 84.410156 145.914062 84.273438 C 145.679688 84.136719 144.554688 84.515625 144.554688 84.515625 L 145.414062 86.511719 C 147.292969 95.414062 130.332031 102.230469 130.332031 102.230469 C 119.535156 96.984375 116.042969 89.777344 115.710938 87.585938 C 116.636719 87.003906 117.601562 84.597656 117.601562 84.597656 C 117.601562 84.597656 115.542969 84.078125 115.089844 84.359375 C 113.75 85.191406 106.832031 91.199219 106.832031 91.199219 Z M 175.957031 140.785156 L 175.59375 140.550781 C 174.78125 141.828125 173.574219 142.878906 172.199219 143.511719 L 172.382812 143.90625 C 173.832031 143.242188 175.101562 142.132812 175.957031 140.785156 Z M 157.882812 149.964844 C 157.882812 145.683594 154.417969 142.210938 150.140625 142.210938 C 145.863281 142.210938 142.398438 145.683594 142.398438 149.964844 C 142.398438 154.246094 145.863281 157.71875 150.140625 157.71875 C 154.417969 157.71875 157.882812 154.246094 157.882812 149.964844 Z M 133.570312 144.480469 C 130.546875 141.453125 125.644531 141.453125 122.621094 144.480469 C 119.597656 147.511719 119.597656 152.417969 122.621094 155.449219 C 125.644531 158.476562 130.546875 158.476562 133.570312 155.449219 C 136.59375 152.417969 136.59375 147.511719 133.570312 144.480469 Z M 113.792969 149.964844 C 113.792969 145.683594 110.328125 142.210938 106.050781 142.210938 C 101.773438 142.210938 98.308594 145.683594 98.308594 149.964844 C 98.308594 154.246094 101.773438 157.71875 106.050781 157.71875 C 110.328125 157.71875 113.792969 154.246094 113.792969 149.964844 Z M 193.324219 164.503906 L 170.132812 164.503906 C 169.320312 158.667969 168.582031 152.675781 169.042969 146.757812 C 169.203125 144.695312 169.480469 143.039062 169.917969 141.546875 C 170.226562 140.5 170.640625 139.449219 171.039062 138.433594 C 171.890625 136.265625 172.773438 134.027344 172.699219 131.664062 L 172.265625 131.679688 C 172.335938 133.953125 171.472656 136.148438 170.636719 138.273438 C 170.234375 139.296875 169.816406 140.359375 169.503906 141.425781 C 169.054688 142.945312 168.769531 144.628906 168.609375 146.722656 C 168.144531 152.667969 168.878906 158.664062 169.695312 164.503906 L 89.308594 164.503906 C 89.347656 160.832031 89.394531 157.113281 89.441406 153.46875 C 89.515625 147.957031 89.585938 142.269531 89.625 136.835938 C 90.382812 138.105469 91.25 139.3125 92.234375 140.429688 L 92.558594 140.140625 C 88.957031 136.039062 86.859375 130.773438 86.652344 125.3125 L 86.21875 125.332031 C 86.359375 129.113281 87.394531 132.800781 89.199219 136.089844 C 89.160156 141.742188 89.082031 147.699219 89.007812 153.464844 C 88.960938 157.109375 88.910156 160.832031 88.875 164.503906 L 68.878906 164.503906 C 69.097656 157.410156 69.394531 148.546875 69.773438 139.199219 C 70.660156 117.277344 77.933594 105.332031 82.324219 102.230469 C 87.300781 98.714844 104.503906 92.089844 106.621094 91.28125 C 106.652344 97.75 110.394531 102.1875 111.546875 103.394531 C 118.40625 110.59375 123.636719 111.628906 123.855469 111.671875 L 124.03125 111.703125 L 124.097656 111.539062 C 125.683594 107.722656 127.597656 103.519531 128.003906 103.257812 C 128.617188 103.078125 129.699219 103.925781 130.0625 104.269531 L 130.203125 104.402344 L 130.351562 104.277344 C 131 103.734375 131.882812 103.199219 132.113281 103.300781 C 132.503906 103.578125 134.449219 107.757812 136.078125 111.542969 L 136.148438 111.710938 L 136.324219 111.667969 C 142.238281 110.3125 146.246094 106.160156 148.75 103.15625 C 153.5 97.445312 153.835938 91.160156 153.859375 90.375 C 155.078125 90.84375 161.332031 93.257812 166.6875 95.566406 C 171.230469 97.523438 175.90625 99.617188 178.28125 100.933594 C 187.066406 105.796875 190.878906 111.054688 192.800781 122.460938 C 193.988281 129.5 193.710938 149.90625 193.324219 164.503906 Z M 192.226562 41.503906 C 192.269531 41.476562 192.296875 41.460938 192.296875 41.460938 C 192.296875 41.460938 191.933594 40.269531 191.851562 39.949219 C 191.683594 39.203125 191.417969 37.675781 191.417969 37.675781 C 191.417969 37.675781 189.863281 37.757812 190.214844 39.296875 C 190.351562 39.910156 190.871094 40.101562 191.15625 40.222656 C 191.199219 40.371094 191.636719 41.609375 191.636719 41.609375 C 191.734375 41.636719 191.832031 41.632812 191.921875 41.617188 C 192.46875 43.367188 194.167969 48.867188 194.671875 51.132812 C 194.96875 52.460938 194.117188 53.453125 193.292969 54.414062 C 192.472656 55.371094 191.699219 56.273438 192.066406 57.441406 L 192.378906 57.34375 C 192.0625 56.347656 192.75 55.550781 193.542969 54.628906 C 194.375 53.65625 195.324219 52.550781 194.992188 51.0625 C 194.484375 48.777344 192.769531 43.238281 192.226562 41.503906 Z M 215.164062 37.5 C 215.164062 37.5 214.921875 38.898438 214.769531 39.582031 C 214.691406 39.875 214.398438 40.972656 214.398438 40.972656 C 214.398438 40.972656 214.449219 41.007812 214.527344 41.042969 C 214.460938 41.246094 214.371094 41.515625 214.257812 41.832031 C 213.375 44.351562 211.308594 50.257812 212.304688 52.519531 C 212.488281 52.945312 212.652344 53.300781 212.792969 53.617188 C 213.539062 55.253906 213.695312 55.597656 213.671875 57.390625 L 213.996094 57.394531 C 214.019531 55.527344 213.84375 55.132812 213.089844 53.480469 C 212.949219 53.167969 212.785156 52.808594 212.601562 52.386719 C 211.65625 50.246094 213.695312 44.425781 214.566406 41.941406 C 214.683594 41.601562 214.777344 41.332031 214.84375 41.132812 C 214.902344 41.136719 214.964844 41.132812 215.023438 41.113281 L 215.242188 39.886719 C 215.472656 39.824219 215.886719 39.648438 216.042969 38.898438 C 216.316406 37.574219 215.164062 37.5 215.164062 37.5 Z M 213.339844 36.34375 C 213.328125 36.335938 212.851562 35.945312 212.113281 35.625 C 212.207031 35.890625 212.257812 36.175781 212.257812 36.472656 C 212.257812 37.929688 211.148438 38.644531 209.691406 38.644531 C 208.382812 38.644531 207.230469 38.15625 207.027344 36.902344 C 206.757812 37.222656 206.503906 37.589844 206.265625 37.996094 L 206.117188 37.910156 C 206.117188 37.910156 210.902344 41.542969 213.449219 36.210938 Z M 200.25 37.996094 C 200.007812 37.589844 199.757812 37.222656 199.488281 36.902344 C 199.285156 38.15625 197.621094 37.5 196.3125 37.5 C 194.855469 37.5 195.332031 37.71875 195.332031 36.261719 C 195.332031 35.964844 194.308594 35.890625 194.398438 35.625 C 193.664062 35.945312 193.1875 36.335938 193.175781 36.34375 L 193.066406 36.210938 C 195.613281 41.542969 200.398438 37.910156 200.398438 37.910156 Z M 126.875 60.589844 C 126.875 60.589844 126.449219 52.546875 117.667969 55.75 C 117.667969 55.75 118.242188 64.042969 126.875 60.589844 Z M 136.207031 60.589844 C 136.207031 60.589844 136.632812 52.546875 145.414062 55.75 C 145.414062 55.75 144.835938 64.042969 136.207031 60.589844"/><path fill="#FBC48D" d="M 116.542969 53.324219 C 116.542969 53.324219 120.933594 50.792969 127.433594 52.820312 L 126.878906 49.832031 C 126.878906 49.832031 123.15625 48.960938 120.535156 49.503906 C 117.917969 50.046875 116.542969 53.324219 116.542969 53.324219 Z M 146.535156 53.324219 C 146.535156 53.324219 142.144531 50.792969 135.644531 52.820312 L 136.203125 49.832031 C 136.203125 49.832031 139.921875 48.960938 142.542969 49.503906 C 145.160156 50.046875 146.535156 53.324219 146.535156 53.324219 Z M 214.257812 41.832031 C 213.375 44.351562 211.308594 50.257812 212.304688 52.519531 C 212.488281 52.945312 212.652344 53.300781 212.792969 53.617188 C 213.539062 55.253906 213.695312 55.597656 213.671875 57.390625 L 213.839844 57.390625 L 207.574219 57.390625 C 208.25 54.328125 209.398438 49.136719 209.632812 48.210938 C 209.855469 47.988281 210.3125 47.582031 210.519531 47.429688 C 211.324219 46.679688 212.046875 45.863281 212.617188 45.035156 C 212.660156 44.976562 213.117188 44.25 213.210938 44.074219 C 213.574219 43.386719 213.886719 42.511719 214.152344 41.554688 C 214.21875 41.554688 214.289062 41.550781 214.355469 41.550781 C 214.324219 41.640625 214.292969 41.730469 214.257812 41.832031 Z M 224.964844 21.820312 L 224.964844 50.929688 C 224.964844 54.5 222.074219 57.390625 218.511719 57.390625 L 213.996094 57.390625 C 214.019531 55.527344 213.839844 55.132812 213.089844 53.480469 C 212.949219 53.167969 212.785156 52.808594 212.601562 52.386719 C 211.65625 50.246094 213.695312 44.425781 214.566406 41.941406 C 214.617188 41.792969 214.664062 41.660156 214.707031 41.535156 C 215.726562 41.445312 216.703125 40.953125 217.429688 40.066406 C 217.429688 40.066406 217.4375 40.054688 217.441406 40.050781 C 217.558594 39.90625 217.667969 39.753906 217.769531 39.589844 C 217.773438 39.585938 217.800781 39.542969 217.800781 39.542969 C 218.050781 39.128906 218.253906 38.65625 218.394531 38.121094 C 218.40625 38.074219 218.445312 37.910156 218.457031 37.859375 C 218.507812 37.609375 218.558594 37.351562 218.585938 37.078125 C 218.929688 33.792969 216.359375 32.988281 215.691406 32.792969 C 215.742188 31.238281 215.742188 30.964844 215.742188 30.964844 C 215.742188 30.964844 205.207031 29.277344 198.832031 25.054688 C 198.832031 25.054688 195.476562 30.34375 190.757812 30.964844 L 190.945312 32.757812 C 190.945312 32.757812 190.28125 32.859375 189.570312 33.296875 C 189.527344 33.324219 189.460938 33.363281 189.425781 33.386719 C 188.558594 33.96875 187.675781 35.066406 187.886719 37.078125 C 187.914062 37.3125 187.949219 37.535156 187.996094 37.753906 C 187.996094 37.769531 188.066406 38.058594 188.070312 38.082031 C 188.265625 38.835938 188.578125 39.46875 188.976562 39.980469 C 188.992188 40 189.3125 40.367188 189.332031 40.386719 C 189.792969 40.847656 190.328125 41.171875 190.902344 41.359375 C 190.921875 41.363281 191.125 41.425781 191.136719 41.429688 C 191.289062 41.46875 191.449219 41.492188 191.605469 41.515625 C 191.625 41.570312 191.636719 41.609375 191.636719 41.609375 C 191.734375 41.636719 191.832031 41.632812 191.921875 41.617188 C 192.46875 43.367188 194.167969 48.867188 194.671875 51.132812 C 194.96875 52.460938 194.117188 53.453125 193.292969 54.414062 C 192.484375 55.355469 191.722656 56.25 192.054688 57.390625 L 189.449219 57.390625 C 185.886719 57.390625 183 54.5 183 50.929688 L 183 21.820312 C 183 18.25 185.886719 15.359375 189.449219 15.359375 L 218.511719 15.359375 C 222.074219 15.359375 224.964844 18.25 224.964844 21.820312 Z M 198.617188 54.769531 C 198.761719 55.644531 198.902344 56.519531 199.054688 57.390625 L 192.222656 57.390625 L 192.378906 57.34375 C 192.0625 56.347656 192.75 55.550781 193.542969 54.628906 C 194.375 53.65625 195.324219 52.550781 194.992188 51.0625 C 194.488281 48.796875 192.796875 43.332031 192.242188 41.550781 C 192.265625 41.550781 192.285156 41.554688 192.3125 41.554688 C 192.359375 41.707031 192.621094 42.480469 192.648438 42.554688 C 192.832031 43.0625 193.03125 43.554688 193.246094 44.039062 C 193.292969 44.144531 193.351562 44.257812 193.410156 44.367188 C 193.421875 44.390625 193.554688 44.617188 193.566406 44.640625 C 193.886719 45.164062 194.316406 45.699219 194.820312 46.226562 C 194.835938 46.242188 195.238281 46.648438 195.25 46.660156 C 195.425781 46.832031 196.242188 47.578125 196.261719 47.566406 C 196.683594 47.917969 197.121094 48.257812 197.566406 48.582031 C 197.585938 48.667969 197.722656 49.417969 197.753906 49.59375 C 197.761719 49.632812 197.769531 49.671875 197.773438 49.710938 C 198.054688 51.398438 198.335938 53.085938 198.617188 54.769531 Z M 149.972656 48.480469 C 149.324219 49.09375 150.394531 47.691406 149.972656 48.480469 Z M 148.195312 51.554688 C 148.085938 50.671875 149.179688 49.988281 150.011719 50.4375 C 149.933594 51.214844 149.144531 51.445312 148.195312 51.554688 Z M 147.734375 30.199219 C 147.289062 30.617188 146.328125 29.835938 147.523438 30.152344 C 147.601562 29.625 147.855469 29.847656 147.734375 30.199219 Z M 147.644531 37.429688 C 147.425781 38.179688 147 36.660156 147.644531 37.429688 Z M 144.851562 30.273438 C 144.710938 30.242188 144.570312 30.214844 144.429688 30.1875 C 144.457031 30.046875 144.488281 29.902344 144.515625 29.761719 C 144.65625 29.789062 144.796875 29.820312 144.9375 29.847656 C 144.910156 29.992188 144.878906 30.132812 144.851562 30.273438 Z M 144.679688 44.160156 C 144.539062 44.132812 144.398438 44.105469 144.253906 44.074219 C 144.28125 43.933594 144.3125 43.792969 144.339844 43.648438 C 144.480469 43.679688 144.625 43.707031 144.765625 43.734375 C 144.734375 43.878906 144.707031 44.019531 144.679688 44.160156 Z M 148.558594 49.320312 C 148.246094 50.074219 149.027344 48.183594 148.558594 49.320312 Z M 149.273438 48.132812 C 149.214844 48.410156 149.054688 48.609375 148.6875 48.648438 C 148.742188 48.375 148.902344 48.171875 149.273438 48.132812 Z M 149.355469 40.695312 C 149.246094 40.949219 148.890625 40.820312 148.929688 40.609375 C 149.085938 40.320312 149.113281 40.667969 149.355469 40.695312 Z M 141.917969 32.769531 C 141.882812 32.160156 142.425781 32.425781 142.515625 32.003906 C 142.8125 31.957031 142.394531 33.078125 141.917969 32.769531 Z M 141.324219 30.835938 C 141.367188 30.582031 141.628906 30.242188 141.722656 30.5625 C 141.984375 30.316406 142.074219 29.933594 142.253906 29.621094 C 142.890625 29.964844 141.835938 31.335938 141.324219 30.835938 Z M 141.121094 32.609375 C 141.113281 32.609375 141.105469 32.609375 141.097656 32.609375 C 141.011719 32.800781 140.824219 32.933594 140.605469 32.722656 C 140.667969 32.660156 140.726562 32.59375 140.78125 32.515625 C 140.492188 32.292969 140.882812 31.78125 141.050781 32.160156 C 141.15625 32.226562 141.167969 32.398438 141.117188 32.554688 C 141.117188 32.574219 141.121094 32.589844 141.121094 32.609375 Z M 140.179688 32.632812 C 139.484375 33.355469 140.011719 31.871094 140.179688 32.632812 Z M 139.195312 35.308594 C 138.378906 35.675781 139.851562 34.699219 139.195312 35.308594 Z M 138.933594 37.683594 C 139.703125 37.425781 137.769531 38.078125 138.933594 37.683594 Z M 138.59375 38.28125 C 138.546875 38.332031 138.054688 38.578125 137.914062 38.363281 C 137.796875 38.1875 138.867188 37.945312 138.59375 38.28125 Z M 137.347656 42.226562 C 136.914062 42.066406 137.722656 41.53125 138.113281 41.71875 C 138.289062 42.539062 137.367188 41.699219 137.347656 42.226562 Z M 136.332031 42.902344 C 136.453125 42.625 136.894531 42.832031 137.21875 42.863281 C 137.097656 43.136719 136.65625 42.929688 136.332031 42.902344 Z M 136.226562 23.871094 C 135.5625 23.523438 136.546875 23.503906 136.5625 23.28125 C 137.15625 23.523438 136.171875 23.542969 136.226562 23.871094 Z M 136.117188 34.363281 C 136.761719 33.867188 135.144531 35.117188 136.117188 34.363281 Z M 134.726562 27.988281 C 134.8125 27.746094 135.148438 27.886719 135.40625 27.90625 C 135.320312 28.144531 134.980469 28.007812 134.726562 27.988281 Z M 134.667969 32.617188 C 135.191406 33.453125 133.878906 33.828125 134.667969 32.617188 Z M 134.617188 35.039062 C 133.738281 36 135.136719 34.46875 134.617188 35.039062 Z M 134.046875 28.070312 C 132.992188 28.042969 135.332031 26.910156 134.089844 27.859375 C 134.074219 27.871094 134.0625 28.070312 134.046875 28.070312 Z M 133.820312 45.484375 C 134.589844 45.222656 132.652344 45.875 133.820312 45.484375 Z M 133.398438 32.359375 C 133.101562 33.183594 133.832031 31.136719 133.398438 32.359375 Z M 132.289062 21.523438 C 132.363281 21.359375 132.542969 21.355469 132.585938 21.140625 C 132.726562 21.171875 132.867188 21.199219 133.011719 21.230469 C 133.011719 21.417969 132.886719 21.414062 132.753906 21.398438 C 132.71875 21.605469 132.980469 21.613281 133.136719 21.695312 C 132.867188 22.304688 132.726562 21.402344 132.289062 21.523438 Z M 132.363281 24.410156 C 132.449219 24.171875 132.785156 24.3125 133.042969 24.332031 C 132.957031 24.570312 132.621094 24.429688 132.363281 24.410156 Z M 132.738281 25.816406 C 132.046875 26.535156 132.574219 25.050781 132.738281 25.816406 Z M 131.441406 21.351562 C 131.527344 21.109375 131.863281 21.25 132.121094 21.269531 C 132.035156 21.507812 131.699219 21.367188 131.441406 21.351562 Z M 131.132812 25.042969 C 131.21875 24.804688 131.554688 24.945312 131.8125 24.960938 C 131.726562 25.203125 131.390625 25.0625 131.132812 25.042969 Z M 131.046875 37.402344 C 130.539062 37.210938 131.203125 36.578125 131.601562 36.851562 C 131.46875 37.117188 131.160156 37.113281 131.046875 37.402344 Z M 130.863281 29.632812 C 130.566406 30.457031 131.296875 28.414062 130.863281 29.632812 Z M 130.753906 23.640625 C 129.835938 22.824219 131.363281 24.183594 130.753906 23.640625 Z M 129.738281 36.253906 C 129.933594 35.996094 130.269531 35.949219 130.671875 36 C 130.40625 36.332031 130.03125 36.722656 129.738281 36.253906 Z M 130.527344 41.054688 C 130.074219 41.695312 130.167969 40.121094 130.527344 41.054688 Z M 128.671875 38.246094 C 128.851562 38.058594 129.203125 38.125 129.222656 37.695312 C 129.734375 37.890625 129.070312 38.519531 128.671875 38.246094 Z M 128.234375 42.394531 C 128.289062 42.070312 128.425781 42.394531 128.664062 42.339844 C 128.644531 42.617188 128.265625 42.613281 128.234375 42.394531 Z M 128.265625 44.574219 C 127.453125 44.941406 128.925781 43.964844 128.265625 44.574219 Z M 126.847656 38.535156 C 127.242188 37.5625 128.027344 37.179688 129.097656 37.226562 C 127.886719 37.535156 128.113281 38.3125 126.847656 38.535156 Z M 127.035156 31.632812 C 127.023438 31.648438 127.078125 31.84375 127.0625 31.847656 C 126.058594 32.167969 127.898438 30.335938 127.035156 31.632812 Z M 126.164062 39.722656 C 125.410156 39.972656 127.453125 39.019531 126.164062 39.722656 Z M 125.957031 38.574219 C 126.167969 38.621094 126.378906 38.664062 126.59375 38.707031 C 126.613281 39.199219 126.125 38.925781 126.039062 39.253906 C 125.796875 39.171875 125.9375 38.832031 125.957031 38.574219 Z M 125.257812 31.140625 C 125.34375 30.898438 125.683594 31.042969 125.9375 31.058594 C 125.851562 31.300781 125.515625 31.160156 125.257812 31.140625 Z M 125.269531 28.933594 C 125.613281 29.164062 125.21875 29.324219 125.140625 29.570312 C 124.792969 29.335938 125.1875 29.175781 125.269531 28.933594 Z M 124.933594 40.359375 C 124.519531 40.199219 124.261719 40.265625 124.210938 40.652344 C 124.0625 40.503906 123.910156 40.359375 123.617188 40.308594 C 123.96875 39.914062 124.554688 39.882812 125.0625 39.71875 C 125.019531 39.933594 124.976562 40.144531 124.933594 40.359375 Z M 123.828125 41.457031 C 123.265625 41.457031 122.929688 41.652344 123.066406 40.859375 C 123.625 40.859375 123.960938 40.664062 123.828125 41.457031 Z M 122.453125 39.886719 C 123.710938 39.570312 123.15625 40.800781 122.453125 39.886719 Z M 122.214844 41.792969 C 122.492188 40.757812 123.203125 41.832031 122.214844 41.792969 Z M 121.652344 40.429688 C 121.484375 40.296875 122.417969 39.726562 122.265625 40.128906 C 122.242188 40.191406 121.859375 40.585938 121.652344 40.429688 Z M 121.984375 37.980469 C 121.839844 38.191406 121.816406 38.496094 121.882812 38.867188 C 121.511719 38.988281 121.339844 37.714844 121.984375 37.980469 Z M 120.980469 42.425781 C 121.140625 42.132812 121.164062 42.484375 121.40625 42.511719 C 121.300781 42.765625 120.941406 42.640625 120.980469 42.425781 Z M 121.742188 29.980469 C 122.429688 30.519531 121.3125 30.585938 121.148438 30.746094 C 120.515625 30.285156 121.628906 30.21875 121.742188 29.980469 Z M 121.300781 23.480469 C 121.960938 23.832031 120.976562 23.855469 120.960938 24.078125 C 120.367188 23.832031 121.351562 23.8125 121.300781 23.480469 Z M 119.996094 33.160156 C 120.082031 32.921875 120.417969 33.0625 120.675781 33.082031 C 120.589844 33.320312 120.25 33.179688 119.996094 33.160156 Z M 119.460938 41.230469 C 119.582031 40.957031 120.027344 41.160156 120.351562 41.191406 C 120.226562 41.464844 119.785156 41.257812 119.460938 41.230469 Z M 118.910156 40.675781 C 118.679688 41.050781 118.628906 40.378906 118.953125 40.464844 C 119.03125 40.292969 118.910156 40.246094 118.785156 40.207031 C 119.003906 39.730469 119.375 40.574219 118.910156 40.675781 Z M 118.921875 37.363281 C 117.832031 37.953125 118.234375 36.613281 118.921875 37.363281 Z M 118.640625 32.222656 C 118.109375 33.160156 117.535156 32.292969 118.640625 32.222656 Z M 117.34375 27.761719 C 118.375 27.761719 117.515625 28.824219 117.34375 27.761719 Z M 118.878906 24.535156 C 118.753906 24.777344 118.28125 24.59375 118.242188 24.40625 C 118.144531 23.910156 119.121094 24.074219 118.878906 24.535156 Z M 119.570312 33.074219 C 119.921875 33.1875 119.265625 34.066406 118.761719 33.792969 C 118.914062 33.375 119.421875 33.496094 119.570312 33.074219 Z M 120.046875 30.742188 C 118.957031 31.332031 119.359375 29.992188 120.046875 30.742188 Z M 119.898438 23.859375 C 119.792969 24.117188 119.433594 23.988281 119.476562 23.773438 C 119.632812 23.484375 119.65625 23.832031 119.898438 23.859375 Z M 122.363281 35.632812 C 122.390625 36.847656 121.011719 35.320312 122.363281 35.632812 Z M 123.210938 22.769531 C 123.066406 23.007812 122.851562 23.148438 122.488281 23.0625 C 122.636719 22.820312 122.847656 22.679688 123.210938 22.769531 Z M 122.765625 29.304688 C 122.847656 29.0625 123.1875 29.207031 123.441406 29.222656 C 123.359375 29.464844 123.019531 29.324219 122.765625 29.304688 Z M 122.503906 31.683594 C 122.585938 31.441406 122.925781 31.582031 123.179688 31.601562 C 123.097656 31.84375 122.757812 31.703125 122.503906 31.683594 Z M 122.988281 35.664062 C 122.988281 35.40625 123.351562 35.433594 123.601562 35.363281 C 123.597656 35.621094 123.234375 35.597656 122.988281 35.664062 Z M 123.195312 39.121094 C 122.582031 38.421875 124.390625 38.828125 123.195312 39.121094 Z M 123.90625 30.203125 C 123.089844 30.570312 124.5625 29.59375 123.90625 30.203125 Z M 124.550781 28.125 C 124.519531 28.496094 124.074219 28.601562 124.421875 28.757812 C 123.929688 29.628906 123.75 27.585938 124.550781 28.125 Z M 124.070312 31.5625 C 124.15625 31.320312 124.492188 31.460938 124.75 31.476562 C 124.664062 31.722656 124.328125 31.578125 124.070312 31.5625 Z M 124.097656 37.480469 C 124.242188 37.464844 124.382812 37.445312 124.527344 37.425781 C 124.554688 37.640625 124.582031 37.855469 124.609375 38.070312 C 124.425781 37.980469 124.234375 37.890625 123.941406 37.941406 C 123.957031 37.761719 124.128906 37.699219 124.097656 37.480469 Z M 123.972656 34.878906 C 122.96875 35.195312 124.808594 33.363281 123.945312 34.664062 C 123.933594 34.679688 123.988281 34.875 123.972656 34.878906 Z M 124.933594 33.878906 C 125.113281 34.339844 124.5625 34.238281 124.585938 34.578125 C 124.210938 34.691406 124.464844 33.746094 124.933594 33.878906 Z M 124.9375 26.214844 C 125.203125 25.84375 125.015625 26.46875 125.316406 26.511719 C 125.917969 26.921875 124.652344 26.667969 124.9375 26.214844 Z M 126.027344 29.53125 C 125.734375 29.417969 126.085938 28.882812 125.734375 28.808594 C 126.113281 28.175781 126.296875 29.136719 126.027344 29.53125 Z M 126.847656 25.5 C 127.488281 24.917969 127.550781 26.417969 126.847656 25.5 Z M 128.414062 26.480469 C 128.304688 26.734375 127.949219 26.609375 127.988281 26.394531 C 128.148438 26.105469 128.171875 26.453125 128.414062 26.480469 Z M 128.59375 23.421875 C 127.777344 23.789062 129.25 22.816406 128.59375 23.421875 Z M 128.96875 24.824219 C 129.109375 24.855469 129.253906 24.882812 129.394531 24.910156 C 129.367188 25.054688 129.335938 25.195312 129.308594 25.335938 C 129.167969 25.308594 129.027344 25.277344 128.882812 25.25 C 128.914062 25.109375 128.941406 24.964844 128.96875 24.824219 Z M 129.636719 28.054688 C 128.757812 29.015625 130.15625 27.488281 129.636719 28.054688 Z M 129.394531 36.847656 C 128.699219 37.566406 129.230469 36.078125 129.394531 36.847656 Z M 129.25 29.964844 C 129.914062 29.554688 130.351562 30.828125 129.25 29.964844 Z M 130.207031 35.023438 C 129.910156 34.914062 130.261719 34.375 129.914062 34.300781 C 130.289062 33.667969 130.476562 34.628906 130.207031 35.023438 Z M 130.359375 27.761719 C 129.90625 28.402344 130 26.828125 130.359375 27.761719 Z M 131.308594 36.128906 C 131.140625 35.933594 131.066406 35.679688 131.011719 35.40625 C 131.210938 34.894531 131.398438 35.851562 131.308594 36.128906 Z M 131.5625 22.921875 C 131.332031 23.269531 131.171875 22.875 130.925781 22.792969 C 131.160156 22.449219 131.320312 22.839844 131.5625 22.921875 Z M 133.722656 23.140625 C 133.027344 23.863281 133.558594 22.375 133.722656 23.140625 Z M 133.898438 22.292969 C 133.203125 23.015625 133.730469 21.527344 133.898438 22.292969 Z M 135.070312 26.289062 C 135.042969 26.433594 135.011719 26.574219 134.984375 26.714844 C 134.84375 26.683594 134.703125 26.65625 134.5625 26.628906 C 134.589844 26.484375 134.617188 26.34375 134.648438 26.203125 C 134.789062 26.234375 134.929688 26.261719 135.070312 26.289062 Z M 134.660156 21.785156 C 134.800781 21.816406 134.945312 21.84375 135.085938 21.875 C 134.941406 22.019531 134.796875 22.171875 134.746094 22.464844 C 134.328125 22.257812 134.363281 22.042969 134.660156 21.785156 Z M 137.363281 25.871094 C 137.320312 25.925781 136.824219 26.171875 136.683594 25.957031 C 136.566406 25.777344 137.636719 25.539062 137.363281 25.871094 Z M 139.195312 29.585938 C 138.976562 30.339844 138.550781 28.820312 139.195312 29.585938 Z M 117.28125 33.492188 C 116.34375 34.074219 116.324219 32.695312 117.28125 33.492188 Z M 116.398438 43.257812 C 115.703125 43.980469 116.234375 42.492188 116.398438 43.257812 Z M 116.164062 49.839844 C 116.027344 50.363281 115.4375 49.757812 115.320312 49.667969 C 115.457031 49.148438 116.050781 49.753906 116.164062 49.839844 Z M 115.8125 49.066406 C 115.808594 49.320312 115.445312 49.296875 115.195312 49.363281 C 115.199219 49.109375 115.5625 49.132812 115.8125 49.066406 Z M 115.144531 45.65625 C 115.160156 45.480469 115.332031 45.414062 115.300781 45.199219 C 115.445312 45.179688 115.585938 45.164062 115.730469 45.144531 C 115.792969 45.320312 115.671875 45.355469 115.542969 45.386719 C 115.578125 45.59375 115.828125 45.519531 116 45.542969 C 115.945312 46.207031 115.515625 45.398438 115.144531 45.65625 Z M 115.832031 35.1875 C 115.136719 35.90625 115.667969 34.421875 115.832031 35.1875 Z M 115.332031 33.316406 C 115.816406 32.59375 116.035156 32.925781 115.5 33.570312 C 115.109375 33.554688 115.105469 33.28125 115.332031 33.316406 Z M 114.761719 38.285156 C 114.460938 39.007812 115.402344 36.765625 114.761719 38.285156 Z M 114.269531 47.300781 C 114.375 46.898438 114.65625 47.21875 114.914062 47.21875 C 114.804688 47.621094 114.527344 47.300781 114.269531 47.300781 Z M 114.765625 52.699219 C 114.746094 52.738281 114.734375 52.765625 114.71875 52.800781 C 114.683594 52.886719 114.644531 52.972656 114.621094 53.03125 C 114.574219 53.132812 114.582031 53.113281 114.621094 53.03125 C 114.640625 52.984375 114.675781 52.90625 114.71875 52.800781 C 114.8125 52.585938 114.898438 52.382812 114.765625 52.699219 Z M 114.5 48.210938 C 114.574219 48.242188 114.597656 48.25 114.5 48.210938 Z M 114.027344 48.011719 C 114.050781 48.023438 114.089844 48.039062 114.140625 48.058594 C 114.082031 48.035156 114.046875 48.019531 114.027344 48.011719 Z M 114.007812 35.476562 C 114.75 34.566406 115.363281 35.492188 114.007812 35.476562 Z M 113.136719 50.292969 C 113.117188 50.148438 113.101562 50.003906 113.082031 49.863281 C 113.222656 49.84375 113.367188 49.824219 113.507812 49.804688 C 113.527344 49.949219 113.546875 50.09375 113.566406 50.234375 C 113.425781 50.253906 113.28125 50.273438 113.136719 50.292969 Z M 112.875 51.820312 C 112.882812 51.824219 112.886719 51.828125 112.894531 51.828125 C 112.789062 52.082031 112.429688 51.953125 112.46875 51.738281 C 112.558594 51.578125 112.605469 51.617188 112.671875 51.6875 C 112.671875 51.679688 112.664062 51.671875 112.664062 51.664062 C 112.71875 51.339844 112.855469 51.660156 113.09375 51.609375 C 113.082031 51.75 112.976562 51.816406 112.875 51.820312 Z M 111.964844 37.933594 C 112.121094 37.644531 112.144531 37.996094 112.390625 38.019531 C 112.28125 38.277344 111.925781 38.148438 111.964844 37.933594 Z M 112.269531 48.660156 C 111.617188 49.273438 112.691406 47.871094 112.269531 48.660156 Z M 112.253906 52.800781 C 112.113281 52.773438 111.972656 52.742188 111.832031 52.714844 C 111.859375 52.574219 111.886719 52.433594 111.917969 52.289062 C 112.058594 52.320312 112.199219 52.347656 112.339844 52.378906 C 112.3125 52.519531 112.285156 52.660156 112.253906 52.800781 Z M 111.832031 55.269531 C 111.515625 55.261719 111.671875 54.640625 111.316406 54.683594 C 111.46875 53.960938 111.957031 54.808594 111.832031 55.269531 Z M 111.292969 51.191406 C 111.707031 50.433594 112.261719 51.832031 111.292969 51.191406 Z M 110.683594 40.988281 C 110.769531 40.746094 111.105469 40.886719 111.363281 40.90625 C 111.277344 41.148438 110.941406 41.003906 110.683594 40.988281 Z M 111.003906 55.597656 C 110.601562 55.492188 110.917969 55.210938 110.917969 54.953125 C 111.320312 55.0625 111 55.339844 111.003906 55.597656 Z M 110.574219 44.078125 C 109.921875 44.691406 110.996094 43.289062 110.574219 44.078125 Z M 109.71875 52.492188 C 109.851562 52.058594 109.878906 52.707031 110.175781 52.648438 C 110.875 52.839844 109.597656 53.011719 109.71875 52.492188 Z M 109.773438 44.621094 C 110.1875 44.320312 110.195312 44.328125 110.015625 44.808594 C 109.585938 44.980469 109.449219 44.027344 109.773438 44.621094 Z M 108.722656 44.125 C 108.027344 44.84375 108.554688 43.359375 108.722656 44.125 Z M 108.652344 40.132812 C 107.957031 40.851562 108.484375 39.367188 108.652344 40.132812 Z M 110.730469 39.671875 C 110.242188 39.820312 110.234375 39.808594 110.5625 39.414062 C 111.023438 39.390625 110.84375 40.335938 110.730469 39.671875 Z M 110.738281 37.464844 C 111.25 37.65625 110.582031 38.289062 110.183594 38.011719 C 110.316406 37.75 110.625 37.757812 110.738281 37.464844 Z M 111.671875 37.210938 C 111.054688 36.515625 112.863281 36.921875 111.671875 37.210938 Z M 112.859375 36.789062 C 112.703125 36.589844 112.429688 36.464844 112.054688 36.40625 C 112.0625 36.015625 113.320312 36.269531 112.859375 36.789062 Z M 112.835938 41.375 C 111.859375 42.125 113.480469 40.878906 112.835938 41.375 Z M 112.921875 42.992188 C 114.15625 42.660156 112.035156 43.230469 112.921875 42.992188 Z M 113.074219 35.730469 C 113.078125 34.695312 114.140625 35.554688 113.074219 35.730469 Z M 114.902344 45.46875 C 114.898438 45.726562 114.535156 45.703125 114.285156 45.773438 C 114.289062 45.515625 114.652344 45.535156 114.902344 45.46875 Z M 114.808594 36.96875 C 114.117188 37.6875 114.644531 36.199219 114.808594 36.96875 Z M 154.089844 26.855469 C 151.402344 28.6875 147.210938 27.394531 142.15625 24.917969 C 137.105469 22.441406 128.503906 17.808594 121.085938 21.796875 C 120.652344 22.027344 120.246094 22.269531 119.863281 22.519531 C 119.886719 22.53125 119.914062 22.539062 119.945312 22.542969 C 119.886719 22.6875 119.746094 22.707031 119.640625 22.660156 C 119.429688 22.804688 119.222656 22.949219 119.019531 23.097656 C 119.003906 23.160156 119.027344 23.21875 119.136719 23.261719 C 118.953125 23.664062 118.851562 23.496094 118.769531 23.28125 C 118.34375 23.605469 117.953125 23.933594 117.59375 24.269531 C 117.597656 24.273438 117.605469 24.273438 117.609375 24.277344 C 117.535156 24.425781 117.398438 24.492188 117.28125 24.570312 C 117.214844 24.632812 117.152344 24.695312 117.089844 24.757812 C 117.078125 24.78125 117.066406 24.800781 117.054688 24.828125 C 117.046875 24.824219 117.042969 24.820312 117.035156 24.816406 C 116.644531 25.222656 116.289062 25.628906 115.976562 26.035156 C 115.925781 26.179688 115.820312 26.472656 115.796875 26.539062 C 115.804688 26.515625 115.824219 26.460938 115.863281 26.351562 C 115.917969 26.195312 115.953125 26.09375 115.976562 26.035156 C 113.480469 29.257812 113.308594 32.347656 113.308594 32.347656 C 111.546875 32.5625 107.867188 34.929688 108.082031 43.328125 C 108.292969 51.730469 111.1875 56.375 111.1875 56.375 L 111.191406 56.378906 C 112.894531 54.824219 115.085938 55.390625 115.085938 55.390625 C 115.085938 55.390625 115.222656 55.433594 115.273438 54.707031 C 115.195312 54.6875 115.117188 54.664062 115.019531 54.628906 C 115.101562 54.527344 115.191406 54.476562 115.285156 54.457031 C 115.296875 54.011719 115.285156 53.359375 115.21875 52.394531 C 115.039062 52.445312 114.875 51.773438 115.1875 52.019531 C 115.175781 51.886719 115.167969 51.757812 115.152344 51.613281 C 115.152344 51.613281 116.425781 50.785156 116.613281 48.261719 C 116.484375 48.316406 116.300781 48.324219 116.152344 48.363281 C 116.15625 48.15625 116.398438 48.132812 116.621094 48.09375 C 116.648438 47.550781 116.632812 46.9375 116.542969 46.238281 C 116.023438 42.265625 116.992188 40.242188 117.28125 39.832031 C 117.292969 39.816406 117.304688 39.804688 117.316406 39.789062 C 117.386719 39.863281 127.683594 50.308594 138.609375 44.730469 C 138.609375 44.730469 143.917969 47.207031 147.390625 44.515625 L 147.664062 55.289062 C 147.664062 55.289062 148.421875 55.554688 149.402344 55.503906 C 149.800781 55.652344 150.207031 55.871094 150.59375 56.160156 C 154.339844 45.484375 152.679688 30.167969 152.679688 30.167969 C 154.382812 29.140625 154.089844 26.855469 154.089844 26.855469 Z M 125.449219 3.4375 C 126.632812 2.425781 128.519531 2.546875 129.785156 3.460938 C 131.050781 4.375 131.746094 5.910156 131.988281 7.453125 C 132.078125 8.039062 132.105469 8.660156 131.859375 9.199219 C 131.742188 9.460938 131.570312 9.6875 131.382812 9.902344 C 130.519531 10.914062 129.347656 11.730469 128.027344 11.878906 C 126.683594 12.03125 125.308594 11.449219 124.367188 10.476562 C 123.179688 9.25 122.664062 7.398438 123.050781 5.730469 C 123.4375 4.066406 124.710938 2.632812 126.320312 2.054688 M 141.085938 69.445312 C 141.226562 69.472656 141.367188 69.503906 141.507812 69.535156 C 141.480469 69.675781 141.449219 69.816406 141.417969 69.957031 C 141.277344 69.929688 141.136719 69.898438 140.996094 69.867188 C 141.023438 69.726562 141.054688 69.585938 141.085938 69.445312 Z M 138.140625 74.488281 C 134.386719 77.550781 130.035156 76.777344 127.097656 75.625 C 126.835938 75.925781 126.5 76.203125 126.238281 75.777344 C 126.378906 75.597656 126.585938 75.527344 126.832031 75.515625 C 126.695312 75.460938 126.554688 75.402344 126.421875 75.34375 C 124.898438 74.671875 124.308594 72.808594 125.15625 71.367188 L 125.289062 71.140625 C 125.9375 70.035156 127.253906 69.53125 128.484375 69.878906 C 131.261719 70.664062 133.945312 70.15625 135.527344 69.683594 C 136.46875 69.40625 137.484375 69.640625 138.207031 70.304688 C 138.636719 70.699219 138.910156 71.195312 139.039062 71.71875 C 139.046875 71.703125 139.054688 71.6875 139.058594 71.667969 C 139.1875 71.648438 139.183594 71.839844 139.097656 72.042969 C 139.210938 72.9375 138.898438 73.871094 138.140625 74.488281 Z M 136.433594 82.394531 C 136.363281 82.269531 136.296875 82.136719 136.230469 82.011719 C 136.359375 81.945312 136.484375 81.875 136.613281 81.808594 C 136.679688 81.9375 136.746094 82.066406 136.8125 82.191406 C 136.6875 82.261719 136.558594 82.328125 136.433594 82.394531 Z M 135.417969 77.308594 C 136.191406 77.054688 134.25 77.6875 135.417969 77.308594 Z M 134.832031 79.8125 C 134.371094 80.085938 134.386719 79.746094 134.734375 79.621094 C 135.339844 79.703125 135.34375 80.941406 134.832031 79.8125 Z M 135.074219 77.894531 C 135.027344 77.949219 134.53125 78.191406 134.390625 77.972656 C 134.277344 77.796875 135.351562 77.566406 135.074219 77.894531 Z M 133.785156 81.828125 C 133.351562 81.667969 134.164062 81.140625 134.554688 81.332031 C 134.722656 82.152344 133.8125 81.304688 133.785156 81.828125 Z M 132.757812 82.492188 C 132.886719 82.222656 133.324219 82.433594 133.648438 82.464844 C 133.523438 82.738281 133.082031 82.527344 132.757812 82.492188 Z M 130.222656 85.050781 C 130.996094 84.796875 129.050781 85.429688 130.222656 85.050781 Z M 127.539062 76.941406 C 127.027344 76.742188 127.699219 76.117188 128.097656 76.394531 C 127.960938 76.660156 127.652344 76.648438 127.539062 76.941406 Z M 126.976562 80.585938 C 126.519531 81.222656 126.628906 79.648438 126.976562 80.585938 Z M 125.152344 77.757812 C 125.332031 77.570312 125.683594 77.644531 125.710938 77.210938 C 126.21875 77.410156 125.546875 78.035156 125.152344 77.757812 Z M 125.890625 76.367188 C 125.1875 77.078125 125.734375 75.597656 125.890625 76.367188 Z M 123.324219 78.027344 C 123.730469 77.058594 124.515625 76.683594 125.589844 76.742188 C 124.375 77.039062 124.59375 77.816406 123.324219 78.027344 Z M 122.628906 79.207031 C 121.871094 79.449219 123.925781 78.515625 122.628906 79.207031 Z M 122.433594 78.058594 C 122.644531 78.105469 122.855469 78.148438 123.066406 78.195312 C 123.082031 78.6875 122.597656 78.410156 122.507812 78.738281 C 122.265625 78.652344 122.414062 78.316406 122.433594 78.058594 Z M 121.816406 70.617188 C 121.902344 70.375 122.242188 70.519531 122.496094 70.539062 C 122.410156 70.78125 122.074219 70.636719 121.816406 70.617188 Z M 125.820312 69.484375 C 126.488281 69.078125 126.914062 70.355469 125.820312 69.484375 Z M 127.433594 69.167969 C 127.132812 69.988281 127.882812 67.953125 127.433594 69.167969 Z M 130.644531 68.5625 C 130.753906 68.597656 130.546875 67.875 130.535156 67.886719 C 130.808594 67.671875 131.34375 68.78125 130.644531 68.5625 Z M 131.207031 68.457031 C 131.269531 68.433594 131.363281 68.402344 131.507812 68.351562 C 131.546875 68.335938 131.578125 68.328125 131.601562 68.316406 C 131.632812 68.304688 131.660156 68.296875 131.679688 68.289062 C 131.664062 68.296875 131.636719 68.304688 131.601562 68.316406 C 131.492188 68.355469 131.316406 68.417969 131.207031 68.457031 C 131.066406 68.507812 131.105469 68.496094 131.207031 68.457031 Z M 142.027344 72.113281 C 141.707031 72.171875 141.960938 71.933594 141.828125 71.726562 C 142.09375 71.648438 142.222656 72.007812 142.027344 72.113281 Z M 144.089844 69.867188 C 144.175781 69.339844 144.425781 69.566406 144.300781 69.914062 C 143.851562 70.328125 142.898438 69.539062 144.089844 69.867188 Z M 120.625 71.023438 C 120.710938 70.785156 121.046875 70.929688 121.300781 70.949219 C 121.214844 71.1875 120.878906 71.042969 120.625 71.023438 Z M 119.667969 78.570312 C 119.058594 77.867188 120.867188 78.292969 119.667969 78.570312 Z M 119.054688 71.128906 C 119.140625 70.886719 119.476562 71.035156 119.730469 71.054688 C 119.644531 71.292969 119.308594 71.148438 119.054688 71.128906 Z M 118.871094 75.078125 C 118.886719 76.292969 117.523438 74.746094 118.871094 75.078125 Z M 117.707031 70.175781 C 117.082031 69.710938 118.199219 69.65625 118.316406 69.421875 C 118.992188 69.964844 117.878906 70.019531 117.707031 70.175781 Z M 146.4375 72.628906 C 146.808594 70.90625 147.171875 66.472656 147.171875 66.472656 C 143.320312 70.660156 140.621094 69.464844 139.148438 68.566406 C 137.675781 67.664062 135.070312 67.746094 130.117188 67.746094 C 125.171875 67.746094 124.867188 68.65625 122.269531 69.871094 C 121.136719 70.398438 120.046875 70.160156 119.042969 69.617188 C 118.902344 69.769531 118.617188 69.871094 118.8125 69.476562 C 117.609375 68.757812 116.542969 67.648438 115.699219 66.964844 C 115.699219 66.964844 115.957031 68.285156 116.304688 69.941406 C 116.394531 69.972656 116.496094 70.035156 116.605469 70.160156 C 116.515625 70.207031 116.441406 70.238281 116.371094 70.261719 C 116.519531 70.96875 116.683594 71.71875 116.851562 72.449219 C 116.96875 72.464844 117.097656 72.496094 117.210938 72.503906 C 117.164062 72.636719 117.039062 72.652344 116.894531 72.636719 C 117.214844 74.011719 117.539062 75.28125 117.789062 75.953125 C 118.046875 76.632812 118.988281 78.015625 120.375 79.535156 C 120.714844 79.351562 121.144531 79.308594 121.527344 79.191406 C 121.480469 79.40625 121.433594 79.613281 121.390625 79.828125 C 121.066406 79.699219 120.839844 79.714844 120.730469 79.914062 C 123.074219 82.386719 126.519531 85.085938 130.054688 85.675781 C 130.054688 85.625 130.046875 85.574219 130.015625 85.527344 C 130.179688 85.476562 130.289062 85.59375 130.304688 85.714844 C 130.683594 85.765625 131.0625 85.796875 131.441406 85.796875 C 137.832031 85.796875 145.761719 75.753906 146.4375 72.628906"/><g clip-path="url(#b)"><path fill="#142144" d="M 230.667969 19.707031 C 230.667969 14.261719 226.261719 9.851562 220.828125 9.851562 L 134.535156 9.851562 C 133.511719 12.679688 130.816406 14.703125 127.640625 14.703125 C 124.460938 14.703125 121.765625 12.679688 120.742188 9.851562 L 34.878906 9.851562 C 29.445312 9.851562 25.039062 14.261719 25.039062 19.707031 L 25.039062 152.699219 C 25.039062 158.144531 29.445312 162.558594 34.878906 162.558594 L 124.0625 162.558594 C 124.113281 160.8125 124.203125 158.851562 124.332031 156.734375 C 127.277344 158.378906 131.066406 157.957031 133.570312 155.449219 C 136.59375 152.417969 136.59375 147.511719 133.570312 144.480469 C 131.371094 142.277344 128.179688 141.683594 125.4375 142.6875 C 126.851562 127.371094 128.820312 111.457031 128.820312 111.457031 L 125.980469 107.191406 C 126.9375 105.0625 127.753906 103.417969 128.003906 103.257812 C 128.617188 103.078125 129.699219 103.925781 130.0625 104.269531 L 130.203125 104.402344 L 130.351562 104.277344 C 131 103.734375 131.882812 103.199219 132.113281 103.300781 C 132.351562 103.472656 133.179688 105.109375 134.152344 107.21875 L 131.945312 111.457031 C 131.945312 114.324219 138.195312 151.109375 139.050781 162.558594 L 196.5 162.558594 C 196.222656 158.285156 195.59375 153.503906 192.988281 149.839844 C 190.921875 146.945312 187.914062 145.054688 184.734375 143.054688 C 182.289062 141.515625 179.757812 139.929688 177.695312 137.832031 C 175.566406 135.675781 173.96875 132.996094 173.074219 130.097656 C 172.234375 127.378906 171.992188 124.449219 171.757812 121.617188 C 171.382812 117.042969 171.027344 112.722656 168.347656 109.398438 C 166.316406 106.878906 163.226562 105.40625 160.234375 103.976562 C 159.816406 103.777344 159.398438 103.578125 158.984375 103.378906 C 155.722656 101.789062 151.78125 99.46875 150.25 95.574219 C 149.542969 93.78125 148.832031 90.152344 148.832031 86.070312 L 148.832031 65.929688 L 147.625 66.285156 C 147.417969 66.347656 147.214844 66.179688 147.238281 65.964844 C 147.480469 63.644531 147.503906 55.769531 147.519531 53.601562 C 147.519531 53.378906 147.75 53.234375 147.949219 53.328125 L 148.664062 53.65625 C 148.679688 53.535156 148.691406 53.410156 148.703125 53.277344 C 149.140625 49.042969 150.050781 40.238281 144.960938 34.691406 C 141.917969 31.378906 137.128906 29.769531 130.714844 29.878906 C 124.859375 29.992188 120.496094 31.855469 117.753906 35.417969 C 113.324219 41.175781 114.195312 49.925781 114.757812 53.367188 L 114.84375 53.328125 C 115.042969 53.234375 115.273438 53.378906 115.273438 53.601562 C 115.289062 55.769531 115.3125 63.644531 115.554688 65.964844 C 115.574219 66.179688 115.375 66.347656 115.167969 66.285156 L 113.726562 65.859375 C 112.296875 65.4375 111.289062 64.164062 111.199219 62.679688 C 111.101562 61.132812 111.019531 59.097656 111.082031 57.226562 C 111.125 55.882812 111.917969 54.679688 113.136719 54.113281 L 113.523438 53.9375 C 112.917969 50.59375 111.765625 41.070312 116.71875 34.628906 C 119.714844 30.730469 124.417969 28.691406 130.691406 28.574219 C 137.488281 28.441406 142.617188 30.207031 145.917969 33.808594 C 151.40625 39.785156 150.421875 49.332031 150 53.410156 C 149.96875 53.726562 149.941406 54.007812 149.917969 54.257812 C 150.984375 54.867188 151.671875 55.980469 151.710938 57.226562 C 151.773438 59.097656 151.691406 61.132812 151.59375 62.679688 C 151.527344 63.757812 150.976562 64.714844 150.136719 65.324219 L 150.136719 86.070312 C 150.136719 89.957031 150.824219 93.472656 151.460938 95.09375 C 152.832031 98.570312 156.507812 100.71875 159.554688 102.203125 C 159.964844 102.402344 160.378906 102.601562 160.792969 102.796875 C 163.917969 104.289062 167.144531 105.828125 169.359375 108.578125 C 172.292969 112.21875 172.679688 116.941406 173.058594 121.507812 C 173.285156 124.269531 173.523438 127.132812 174.316406 129.710938 C 175.152344 132.414062 176.640625 134.90625 178.625 136.917969 C 180.578125 138.902344 183.042969 140.449219 185.425781 141.949219 C 188.574219 143.925781 191.832031 145.972656 194.046875 149.082031 C 196.875 153.050781 197.523438 158.09375 197.808594 162.558594 L 220.828125 162.558594 C 226.261719 162.558594 230.667969 158.144531 230.667969 152.699219 Z M 124.535156 7.351562 C 124.535156 7.472656 124.542969 7.59375 124.554688 7.707031 C 124.558594 7.742188 124.566406 7.773438 124.570312 7.808594 C 124.582031 7.890625 124.59375 7.976562 124.613281 8.054688 C 124.621094 8.089844 124.632812 8.125 124.640625 8.160156 C 124.660156 8.238281 124.679688 8.316406 124.707031 8.394531 C 124.714844 8.421875 124.726562 8.453125 124.738281 8.484375 C 124.765625 8.566406 124.796875 8.640625 124.832031 8.71875 C 124.84375 8.742188 124.855469 8.769531 124.867188 8.792969 C 124.90625 8.875 124.949219 8.953125 124.996094 9.027344 C 125.003906 9.046875 125.015625 9.066406 125.027344 9.085938 C 125.078125 9.167969 125.132812 9.246094 125.1875 9.324219 C 125.195312 9.335938 125.207031 9.347656 125.214844 9.359375 C 125.277344 9.441406 125.34375 9.523438 125.414062 9.597656 C 125.421875 9.605469 125.425781 9.609375 125.429688 9.617188 C 125.507812 9.695312 125.585938 9.773438 125.671875 9.851562 C 126.253906 10.363281 127.015625 10.675781 127.851562 10.675781 C 128.691406 10.675781 129.453125 10.363281 130.035156 9.851562 C 130.117188 9.773438 130.199219 9.695312 130.273438 9.617188 C 130.28125 9.609375 130.285156 9.605469 130.289062 9.597656 C 130.363281 9.523438 130.429688 9.441406 130.492188 9.359375 C 130.5 9.347656 130.507812 9.335938 130.519531 9.324219 C 130.574219 9.246094 130.628906 9.167969 130.679688 9.085938 C 130.691406 9.066406 130.703125 9.046875 130.710938 9.027344 C 130.757812 8.953125 130.796875 8.875 130.835938 8.792969 C 130.847656 8.769531 130.863281 8.742188 130.871094 8.71875 C 130.910156 8.640625 130.9375 8.566406 130.964844 8.484375 C 130.976562 8.453125 130.988281 8.421875 131 8.394531 C 131.027344 8.316406 131.046875 8.238281 131.066406 8.160156 C 131.074219 8.125 131.085938 8.089844 131.09375 8.054688 C 131.109375 7.976562 131.121094 7.890625 131.132812 7.808594 C 131.140625 7.773438 131.144531 7.742188 131.148438 7.707031 C 131.160156 7.59375 131.167969 7.472656 131.167969 7.351562 C 131.167969 7.21875 131.160156 7.089844 131.144531 6.960938 C 131.140625 6.921875 131.132812 6.882812 131.125 6.84375 C 131.113281 6.753906 131.09375 6.660156 131.074219 6.570312 C 131.0625 6.53125 131.054688 6.492188 131.042969 6.453125 C 131.015625 6.355469 130.984375 6.261719 130.949219 6.164062 C 130.9375 6.144531 130.929688 6.121094 130.921875 6.097656 C 130.871094 5.976562 130.816406 5.859375 130.753906 5.746094 C 130.753906 5.742188 130.75 5.738281 130.746094 5.730469 C 130.6875 5.625 130.621094 5.523438 130.546875 5.421875 C 130.535156 5.402344 130.519531 5.386719 130.507812 5.367188 C 130.441406 5.28125 130.371094 5.191406 130.292969 5.109375 C 130.285156 5.097656 130.273438 5.085938 130.261719 5.070312 C 130.078125 4.882812 129.875 4.710938 129.652344 4.566406 C 129.132812 4.230469 128.515625 4.03125 127.851562 4.03125 C 127.1875 4.03125 126.570312 4.230469 126.050781 4.566406 C 125.832031 4.710938 125.628906 4.882812 125.445312 5.070312 C 125.433594 5.085938 125.421875 5.097656 125.410156 5.109375 C 125.335938 5.191406 125.265625 5.28125 125.199219 5.367188 C 125.183594 5.386719 125.171875 5.402344 125.15625 5.421875 C 125.085938 5.523438 125.019531 5.625 124.957031 5.734375 C 124.957031 5.738281 124.953125 5.742188 124.953125 5.746094 C 124.890625 5.859375 124.832031 5.976562 124.785156 6.097656 C 124.773438 6.121094 124.765625 6.144531 124.757812 6.164062 C 124.722656 6.261719 124.691406 6.355469 124.664062 6.453125 C 124.652344 6.492188 124.644531 6.53125 124.632812 6.570312 C 124.609375 6.660156 124.59375 6.753906 124.582031 6.84375 C 124.574219 6.882812 124.566406 6.921875 124.5625 6.960938 C 124.546875 7.089844 124.535156 7.21875 124.535156 7.351562 Z M 236.492188 18.640625 L 236.492188 153.5 C 236.492188 161.261719 230.1875 167.574219 222.4375 167.574219 L 149.027344 167.574219 C 149.121094 181.253906 153.804688 192.277344 167.515625 192.277344 L 176.675781 192.277344 C 178.273438 192.277344 179.566406 193.574219 179.566406 195.171875 C 179.566406 196.769531 178.273438 198.066406 176.675781 198.066406 L 78.707031 198.066406 C 77.109375 198.066406 75.816406 196.769531 75.816406 195.171875 C 75.816406 193.574219 77.109375 192.277344 78.707031 192.277344 L 87.867188 192.277344 C 101.578125 192.277344 106.261719 181.253906 106.355469 167.574219 L 33.269531 167.574219 C 25.519531 167.574219 19.214844 161.261719 19.214844 153.5 L 19.214844 18.640625 C 19.214844 10.878906 25.519531 4.566406 33.269531 4.566406 L 120.847656 4.566406 C 121.945312 1.886719 124.570312 0 127.640625 0 C 130.707031 0 133.332031 1.886719 134.429688 4.566406 L 222.4375 4.566406 C 230.1875 4.566406 236.492188 10.878906 236.492188 18.640625 Z M 129.246094 7.351562 C 129.898438 7.351562 130.429688 6.820312 130.429688 6.164062 C 130.429688 5.511719 129.898438 4.980469 129.246094 4.980469 C 128.589844 4.980469 128.058594 5.511719 128.058594 6.164062 C 128.058594 6.820312 128.589844 7.351562 129.246094 7.351562 Z M 209.625 39.113281 C 211.078125 39.113281 212.257812 37.929688 212.257812 36.472656 C 212.257812 36.175781 212.207031 35.890625 212.113281 35.625 C 212.851562 35.945312 213.328125 36.335938 213.339844 36.34375 L 213.558594 36.078125 C 213.484375 36.015625 211.707031 34.550781 209.570312 34.921875 C 208.171875 35.167969 206.957031 36.140625 205.972656 37.824219 L 206.265625 38 C 206.503906 37.589844 206.757812 37.222656 207.027344 36.902344 C 207.230469 38.15625 208.316406 39.113281 209.625 39.113281 Z M 196.941406 34.921875 C 194.808594 34.554688 193.03125 36.019531 192.957031 36.078125 L 193.175781 36.34375 C 193.1875 36.335938 193.664062 35.945312 194.398438 35.625 C 194.308594 35.890625 194.257812 36.175781 194.257812 36.472656 C 194.257812 37.929688 195.4375 39.113281 196.890625 39.113281 C 198.199219 39.113281 199.285156 38.15625 199.488281 36.902344 C 199.757812 37.222656 200.007812 37.589844 200.25 38 L 200.542969 37.824219 C 199.554688 36.140625 198.34375 35.167969 196.941406 34.921875 Z M 200.851562 33.089844 C 201.949219 31.992188 201.398438 31.382812 201.398438 31.382812 C 201.519531 32.175781 200.851562 33.089844 200.851562 33.089844 Z M 205.289062 31.582031 C 205.289062 31.582031 205.757812 33.660156 206.996094 33.40625 C 207.300781 33.34375 211.019531 32.632812 211.820312 32.640625 C 213.359375 32.660156 214.246094 33.355469 214.246094 33.355469 C 214.246094 33.355469 213.359375 31.277344 211.359375 30.890625 C 209.726562 30.574219 206.71875 31.234375 205.667969 31.488281 C 205.988281 32.246094 206.5 32.917969 206.5 32.917969 C 206 32.640625 205.289062 31.582031 205.289062 31.582031 Z M 195.140625 30.890625 C 193.144531 31.277344 192.253906 33.355469 192.253906 33.355469 C 192.253906 33.355469 193.140625 32.660156 194.679688 32.640625 C 195.6875 32.628906 198.019531 33.089844 199.503906 33.40625 C 200.742188 33.660156 201.210938 31.582031 201.210938 31.582031 C 201.210938 31.582031 200.5 32.640625 200 32.917969 C 200 32.917969 200.511719 32.246094 200.832031 31.488281 C 199.78125 31.234375 196.769531 30.574219 195.140625 30.890625 Z M 221.113281 46.289062 C 221.4375 38.585938 220.339844 24.433594 215.296875 20.722656 C 208.964844 16.0625 199.675781 15.351562 197.566406 19.363281 C 197.566406 19.363281 188.480469 19.78125 186.542969 33.324219 C 185.097656 43.429688 185.949219 51.828125 185.433594 55.980469 C 186.535156 56.863281 187.929688 57.390625 189.449219 57.390625 L 192.054688 57.390625 C 191.722656 56.25 192.484375 55.355469 193.292969 54.414062 C 194.117188 53.453125 194.96875 52.460938 194.671875 51.132812 C 194.167969 48.867188 192.46875 43.367188 191.921875 41.617188 C 191.832031 41.632812 191.734375 41.636719 191.636719 41.609375 C 191.636719 41.609375 191.625 41.570312 191.605469 41.515625 C 191.449219 41.492188 191.289062 41.46875 191.136719 41.429688 C 191.125 41.425781 190.921875 41.363281 190.902344 41.359375 C 190.328125 41.171875 189.792969 40.847656 189.332031 40.386719 C 189.3125 40.367188 188.992188 40 188.976562 39.980469 C 188.578125 39.46875 188.265625 38.835938 188.070312 38.082031 C 188.066406 38.058594 187.996094 37.769531 187.996094 37.753906 C 187.949219 37.535156 187.914062 37.3125 187.886719 37.078125 C 187.675781 35.066406 188.558594 33.96875 189.425781 33.386719 C 189.460938 33.363281 189.527344 33.324219 189.570312 33.296875 C 190.28125 32.859375 190.945312 32.757812 190.945312 32.757812 L 190.757812 30.964844 C 195.476562 30.34375 198.832031 25.054688 198.832031 25.054688 C 205.207031 29.277344 215.742188 30.964844 215.742188 30.964844 C 215.742188 30.964844 215.742188 31.238281 215.691406 32.792969 C 216.359375 32.988281 218.929688 33.792969 218.585938 37.078125 C 218.558594 37.351562 218.507812 37.609375 218.457031 37.859375 C 218.445312 37.910156 218.40625 38.074219 218.394531 38.121094 C 218.253906 38.65625 218.050781 39.128906 217.800781 39.542969 C 217.800781 39.542969 217.773438 39.585938 217.769531 39.589844 C 217.667969 39.753906 217.558594 39.90625 217.441406 40.050781 C 217.4375 40.054688 217.429688 40.066406 217.429688 40.066406 C 216.703125 40.953125 215.726562 41.445312 214.707031 41.535156 C 214.664062 41.660156 214.617188 41.792969 214.566406 41.941406 C 213.695312 44.425781 211.65625 50.246094 212.601562 52.386719 C 212.785156 52.808594 212.949219 53.167969 213.089844 53.480469 C 213.839844 55.132812 214.019531 55.527344 213.996094 57.390625 L 218.511719 57.390625 C 220.125 57.390625 221.59375 56.796875 222.726562 55.816406 C 221.847656 53.6875 220.9375 50.429688 221.113281 46.289062 Z M 212.792969 53.617188 C 212.652344 53.300781 212.488281 52.945312 212.304688 52.519531 C 211.308594 50.257812 213.375 44.351562 214.257812 41.832031 C 214.292969 41.730469 214.324219 41.640625 214.355469 41.550781 C 214.289062 41.550781 214.21875 41.554688 214.152344 41.554688 C 213.886719 42.511719 213.574219 43.386719 213.210938 44.074219 C 213.117188 44.25 212.660156 44.976562 212.617188 45.035156 C 212.046875 45.863281 211.324219 46.679688 210.519531 47.429688 C 210.3125 47.582031 209.855469 47.988281 209.632812 48.210938 C 209.398438 49.136719 208.25 54.328125 207.574219 57.390625 L 213.839844 57.390625 L 213.671875 57.390625 C 213.695312 55.597656 213.539062 55.253906 212.792969 53.617188 Z M 197.773438 49.710938 C 197.769531 49.671875 197.761719 49.632812 197.753906 49.59375 C 197.722656 49.417969 197.585938 48.667969 197.566406 48.582031 C 197.121094 48.257812 196.683594 47.917969 196.261719 47.566406 C 196.242188 47.578125 195.425781 46.832031 195.25 46.660156 C 195.238281 46.648438 194.835938 46.242188 194.820312 46.226562 C 194.316406 45.699219 193.886719 45.164062 193.566406 44.640625 C 193.554688 44.617188 193.421875 44.390625 193.410156 44.367188 C 193.351562 44.257812 193.292969 44.144531 193.246094 44.039062 C 193.03125 43.554688 192.832031 43.0625 192.648438 42.554688 C 192.621094 42.480469 192.359375 41.707031 192.3125 41.554688 C 192.285156 41.554688 192.265625 41.550781 192.242188 41.550781 C 192.796875 43.332031 194.488281 48.796875 194.992188 51.0625 C 195.324219 52.550781 194.375 53.65625 193.542969 54.628906 C 192.75 55.550781 192.0625 56.347656 192.378906 57.34375 L 192.222656 57.390625 L 199.054688 57.390625 C 198.902344 56.519531 198.761719 55.644531 198.617188 54.769531 C 198.335938 53.085938 198.054688 51.398438 197.773438 49.710938 Z M 119.109375 55.535156 C 118.742188 56.113281 118.527344 56.800781 118.527344 57.539062 C 118.527344 58.304688 118.753906 59.015625 119.148438 59.609375 C 119.707031 60.308594 120.472656 60.90625 121.523438 61.214844 C 121.765625 61.261719 122.015625 61.289062 122.269531 61.289062 C 124.15625 61.289062 125.710938 59.894531 125.96875 58.078125 C 126.578125 59.351562 126.65625 60.582031 126.65625 60.601562 L 127.089844 60.578125 C 127.085938 60.441406 126.886719 57.230469 124.476562 55.636719 C 122.792969 54.523438 120.480469 54.492188 117.59375 55.546875 L 117.742188 55.953125 C 118.214844 55.78125 118.667969 55.648438 119.109375 55.535156 Z M 136.421875 60.601562 L 135.988281 60.578125 C 135.996094 60.441406 136.191406 57.230469 138.601562 55.636719 C 140.285156 54.523438 142.601562 54.492188 145.488281 55.546875 L 145.339844 55.953125 C 144.863281 55.78125 144.410156 55.648438 143.972656 55.535156 C 144.339844 56.113281 144.554688 56.800781 144.554688 57.539062 C 144.554688 58.304688 144.324219 59.015625 143.929688 59.609375 C 143.371094 60.308594 142.605469 60.90625 141.558594 61.214844 C 141.316406 61.261719 141.066406 61.289062 140.808594 61.289062 C 138.925781 61.289062 137.367188 59.890625 137.109375 58.074219 C 136.5 59.351562 136.421875 60.582031 136.421875 60.601562"/></g></svg>