<?xml version="1.0" encoding="UTF-8"?>
<svg xmlns="http://www.w3.org/2000/svg" xmlns:xlink="http://www.w3.org/1999/xlink" width="1440pt" height="809.999993pt" viewBox="0 0 1440 809.999993" version="1.2">
<defs>
<clipPath id="clip1">
  <path d="M 640.15625 0 L 1440 0 L 1440 810 L 640.15625 810 Z M 640.15625 0 "/>
</clipPath>
</defs>
<g id="surface1">
<rect x="0" y="0" width="1440" height="809.999993" style="fill:rgb(100%,100%,100%);fill-opacity:1;stroke:none;"/>
<rect x="0" y="0" width="1440" height="809.999993" style="fill:rgb(100%,100%,100%);fill-opacity:1;stroke:none;"/>
<rect x="0" y="0" width="1440" height="809.999993" style="fill:rgb(32.548523%,61.569214%,100%);fill-opacity:1;stroke:none;"/>
<path style=" stroke:none;fill-rule:nonzero;fill:rgb(25.099182%,57.249451%,100%);fill-opacity:1;" d="M -107.359375 815.152344 C -118.660156 749.039062 -121.558594 681.472656 -115.765625 614.488281 C -116.921875 394.6875 -117.792969 174.882812 -105.910156 -44.628906 C 187.941406 -32.449219 493.671875 -35.058594 787.8125 -39.121094 C 786.652344 20.617188 769.84375 74.261719 734.199219 122.6875 C 722.027344 139.214844 708.117188 154.296875 691.308594 165.894531 C 642.335938 199.53125 568.726562 201.5625 539.457031 253.46875 C 514.828125 296.671875 535.691406 351.480469 529.316406 400.773438 C 524.101562 442.820312 498.597656 480.519531 464.691406 505.746094 C 430.785156 530.976562 389.347656 544.605469 347.324219 549.824219 C 309.652344 554.464844 268.792969 553.882812 238.363281 576.5 C 203.878906 602.019531 194.023438 648.125 176.925781 687.5625 C 132.007812 791.375 5.371094 827.621094 -107.359375 815.152344 Z M -107.359375 815.152344 "/>
<g clip-path="url(#clip1)" clip-rule="nonzero">
<path style=" stroke:none;fill-rule:nonzero;fill:rgb(25.099182%,57.249451%,100%);fill-opacity:1;" d="M 1670.597656 -53.003906 C 1683.605469 23.058594 1686.941406 100.792969 1680.269531 177.855469 C 1681.605469 430.730469 1682.605469 683.609375 1668.929688 936.152344 C 1330.746094 922.140625 978.886719 925.144531 640.367188 929.8125 C 641.703125 861.089844 661.046875 799.371094 702.070312 743.660156 C 716.078125 724.644531 732.085938 707.296875 751.429688 693.949219 C 807.792969 655.253906 892.507812 652.917969 926.191406 593.199219 C 954.539062 543.492188 930.527344 480.441406 937.863281 423.726562 C 943.867188 375.351562 973.21875 331.984375 1012.238281 302.960938 C 1051.261719 273.933594 1098.953125 258.253906 1147.3125 252.25 C 1190.667969 246.914062 1237.695312 247.582031 1272.714844 221.558594 C 1312.402344 192.199219 1323.742188 139.15625 1343.421875 93.785156 C 1395.113281 -25.648438 1540.863281 -67.347656 1670.597656 -53.003906 Z M 1670.597656 -53.003906 "/>
</g>
<path style="fill:none;stroke-width:1;stroke-linecap:butt;stroke-linejoin:miter;stroke:rgb(100%,74.119568%,34.899902%);stroke-opacity:1;stroke-miterlimit:4;" d="M 0.0000707489 0.0000574904 L 15.859805 0.0000574904 " transform="matrix(21.753694,0,0,22.224586,221.088305,799.08466)"/>
<path style="fill:none;stroke-width:1;stroke-linecap:butt;stroke-linejoin:miter;stroke:rgb(100%,34.118652%,34.118652%);stroke-opacity:1;stroke-miterlimit:4;" d="M -0.000064272 0.0000574904 L 17.191927 0.0000574904 " transform="matrix(21.769084,0,0,22.224586,910.98968,799.08466)"/>
<path style="fill:none;stroke-width:1;stroke-linecap:butt;stroke-linejoin:miter;stroke:rgb(10.978699%,63.529968%,33.329773%);stroke-opacity:1;stroke-miterlimit:4;" d="M 0.00000426385 0.0000574904 L 15.859739 0.0000574904 " transform="matrix(21.753694,0,0,22.224586,566.03897,799.08466)"/>
</g>
</svg>
