<svg xmlns="http://www.w3.org/2000/svg" xmlns:xlink="http://www.w3.org/1999/xlink" width="500" zoomAndPan="magnify" viewBox="0 0 375 374.999991" height="500" preserveAspectRatio="xMidYMid meet" version="1.0"><defs><clipPath id="3e0cb25baa"><path d="M 34 78.179688 L 341 78.179688 L 341 297.179688 L 34 297.179688 Z M 34 78.179688 " clip-rule="nonzero"/></clipPath></defs><g clip-path="url(#3e0cb25baa)"><path fill="#000000" d="M 336.625 136.855469 L 195.648438 78.863281 C 194.289062 78.179688 192.246094 78.179688 190.203125 78.863281 L 88.726562 120.480469 C 83.960938 121.84375 79.191406 123.890625 73.0625 126.621094 L 48.546875 136.855469 C 45.824219 138.21875 44.460938 140.265625 44.460938 142.996094 C 44.460938 145.722656 45.824219 148.453125 48.546875 149.136719 L 49.226562 149.136719 C 43.777344 158.003906 40.375 168.917969 41.734375 182.566406 C 43.097656 197.574219 44.460938 209.171875 45.824219 218.042969 C 41.734375 222.816406 34.246094 231.6875 34.925781 242.601562 C 34.925781 246.011719 38.332031 248.742188 41.734375 248.742188 C 41.734375 248.742188 41.734375 248.742188 42.417969 248.742188 C 46.503906 248.742188 49.226562 245.332031 48.546875 241.238281 C 48.546875 239.191406 49.226562 237.144531 49.910156 235.097656 C 50.589844 237.828125 51.269531 239.191406 51.269531 239.191406 C 52.632812 241.238281 54.675781 242.601562 57.398438 242.601562 C 58.082031 242.601562 59.441406 242.601562 60.125 241.917969 C 63.527344 240.554688 64.890625 236.460938 63.527344 233.050781 C 63.527344 233.050781 62.847656 231.6875 62.167969 228.957031 C 66.933594 231.6875 69.660156 235.78125 69.660156 236.460938 C 71.019531 238.507812 73.0625 239.875 75.789062 239.875 C 77.148438 239.875 77.832031 239.875 79.191406 239.191406 C 82.597656 237.144531 83.277344 233.050781 81.917969 229.640625 C 81.234375 228.957031 73.746094 215.3125 59.441406 213.949219 C 58.082031 205.761719 56.71875 194.84375 55.355469 180.519531 C 54.675781 169.601562 57.398438 160.734375 61.484375 153.910156 L 96.898438 170.285156 L 96.898438 260.339844 C 96.898438 262.386719 98.261719 264.433594 99.625 265.796875 C 101.667969 269.210938 142.527344 297.179688 192.925781 297.179688 C 243.320312 297.179688 284.183594 269.210938 285.546875 267.84375 C 287.589844 266.480469 288.269531 264.433594 288.269531 262.386719 L 288.269531 172.332031 L 336.625 149.816406 C 339.347656 148.453125 340.710938 146.40625 340.710938 143.675781 C 340.710938 140.265625 339.347656 138.21875 336.625 136.855469 Z M 275.332031 258.976562 C 272.605469 260.339844 269.203125 263.070312 263.753906 265.117188 L 263.753906 220.769531 C 263.753906 216.675781 261.027344 213.949219 256.941406 213.949219 C 252.855469 213.949219 250.132812 216.675781 250.132812 220.769531 L 250.132812 271.257812 C 235.148438 277.394531 214.71875 283.535156 192.925781 283.535156 C 154.105469 283.535156 120.734375 264.433594 110.519531 258.292969 L 110.519531 178.472656 L 189.519531 215.996094 C 190.203125 216.675781 191.5625 216.675781 192.246094 216.675781 C 192.925781 216.675781 194.289062 216.675781 194.96875 215.996094 L 273.96875 178.472656 L 273.96875 258.976562 Z M 192.925781 201.667969 L 71.703125 144.359375 C 74.425781 142.3125 77.148438 140.265625 80.554688 138.902344 L 192.925781 93.191406 L 316.875 143.675781 Z M 192.925781 201.667969 " fill-opacity="1" fill-rule="nonzero"/></g></svg>